0
SECTION
2
HEADER
9
$ACADVER
1
AC1014
9
$ACADMAINTVER
70
8
9
$DWGCODEPAGE
3
ANSI_1252
9
$INSBASE
10
0.0
20
0.0
30
0.0
9
$EXTMIN
10
1.000000E+20
20
1.000000E+20
30
1.000000E+20
9
$EXTMAX
10
-1.000000E+20
20
-1.000000E+20
30
-1.000000E+20
9
$LIMMIN
10
0.0
20
0.0
9
$LIMMAX
10
12.0
20
9.0
9
$ORTHOMODE
70
0
9
$REGENMODE
70
1
9
$FILLMODE
70
1
9
$QTEXTMODE
70
0
9
$MIRRTEXT
70
1
9
$DRAGMODE
70
2
9
$LTSCALE
40
1.0
9
$OSMODE
70
0
9
$ATTMODE
70
1
9
$TEXTSIZE
40
0.2
9
$TRACEWID
40
0.05
9
$TEXTSTYLE
7
STANDARD
9
$CLAYER
8
0
9
$CELTYPE
6
BYLAYER
9
$CECOLOR
62
256
9
$CELTSCALE
40
1.0
9
$DELOBJ
70
1
9
$DISPSILH
70
0
9
$DIMSCALE
40
1.0
9
$DIMASZ
40
0.18
9
$DIMEXO
40
0.0625
9
$DIMDLI
40
0.38
9
$DIMRND
40
0.0
9
$DIMDLE
40
0.0
9
$DIMEXE
40
0.18
9
$DIMTP
40
0.0
9
$DIMTM
40
0.0
9
$DIMTXT
40
0.18
9
$DIMCEN
40
0.09
9
$DIMTSZ
40
0.0
9
$DIMTOL
70
0
9
$DIMLIM
70
0
9
$DIMTIH
70
1
9
$DIMTOH
70
1
9
$DIMSE1
70
0
9
$DIMSE2
70
0
9
$DIMTAD
70
0
9
$DIMZIN
70
0
9
$DIMBLK
1

9
$DIMASO
70
1
9
$DIMSHO
70
1
9
$DIMPOST
1

9
$DIMAPOST
1

9
$DIMALT
70
0
9
$DIMALTD
70
2
9
$DIMALTF
40
25.4
9
$DIMLFAC
40
1.0
9
$DIMTOFL
70
0
9
$DIMTVP
40
0.0
9
$DIMTIX
70
0
9
$DIMSOXD
70
0
9
$DIMSAH
70
0
9
$DIMBLK1
1

9
$DIMBLK2
1

9
$DIMSTYLE
2
STANDARD
9
$DIMCLRD
70
0
9
$DIMCLRE
70
0
9
$DIMCLRT
70
0
9
$DIMTFAC
40
1.0
9
$DIMGAP
40
0.09
9
$DIMJUST
70
0
9
$DIMSD1
70
0
9
$DIMSD2
70
0
9
$DIMTOLJ
70
1
9
$DIMTZIN
70
0
9
$DIMALTZ
70
0
9
$DIMALTTZ
70
0
9
$DIMFIT
70
3
9
$DIMUPT
70
0
9
$DIMUNIT
70
2
9
$DIMDEC
70
4
9
$DIMTDEC
70
4
9
$DIMALTU
70
2
9
$DIMALTTD
70
2
9
$DIMTXSTY
7
STANDARD
9
$DIMAUNIT
70
0
9
$LUNITS
70
2
9
$LUPREC
70
4
9
$SKETCHINC
40
0.1
9
$FILLETRAD
40
0.5
9
$AUNITS
70
0
9
$AUPREC
70
0
9
$MENU
1
.
9
$ELEVATION
40
0.0
9
$PELEVATION
40
0.0
9
$THICKNESS
40
0.0
9
$LIMCHECK
70
0
9
$BLIPMODE
70
0
9
$CHAMFERA
40
0.5
9
$CHAMFERB
40
0.5
9
$CHAMFERC
40
1.0
9
$CHAMFERD
40
0.0
9
$SKPOLY
70
1
9
$TDCREATE
40
2451008.519973958
9
$TDUPDATE
40
2451008.523538426
9
$TDINDWG
40
0.0024055556
9
$TDUSRTIMER
40
0.0024055556
9
$USRTIMER
70
1
9
$ANGBASE
50
0.0
9
$ANGDIR
70
0
9
$PDMODE
70
0
9
$PDSIZE
40
0.0
9
$PLINEWID
40
0.0
9
$COORDS
70
1
9
$SPLFRAME
70
0
9
$SPLINETYPE
70
6
9
$SPLINESEGS
70
8
9
$ATTDIA
70
0
9
$ATTREQ
70
1
9
$HANDLING
70
1
9
$HANDSEED
5
5B
9
$SURFTAB1
70
6
9
$SURFTAB2
70
6
9
$SURFTYPE
70
6
9
$SURFU
70
6
9
$SURFV
70
6
9
$UCSNAME
2

9
$UCSORG
10
0.0
20
0.0
30
0.0
9
$UCSXDIR
10
1.0
20
0.0
30
0.0
9
$UCSYDIR
10
0.0
20
1.0
30
0.0
9
$PUCSNAME
2

9
$PUCSORG
10
0.0
20
0.0
30
0.0
9
$PUCSXDIR
10
1.0
20
0.0
30
0.0
9
$PUCSYDIR
10
0.0
20
1.0
30
0.0
9
$USERI1
70
0
9
$USERI2
70
0
9
$USERI3
70
0
9
$USERI4
70
0
9
$USERI5
70
0
9
$USERR1
40
0.0
9
$USERR2
40
0.0
9
$USERR3
40
0.0
9
$USERR4
40
0.0
9
$USERR5
40
0.0
9
$WORLDVIEW
70
1
9
$SHADEDGE
70
3
9
$SHADEDIF
70
70
9
$TILEMODE
70
1
9
$MAXACTVP
70
48
9
$PINSBASE
10
0.0
20
0.0
30
0.0
9
$PLIMCHECK
70
0
9
$PEXTMIN
10
1.000000E+20
20
1.000000E+20
30
1.000000E+20
9
$PEXTMAX
10
-1.000000E+20
20
-1.000000E+20
30
-1.000000E+20
9
$PLIMMIN
10
0.0
20
0.0
9
$PLIMMAX
10
12.0
20
9.0
9
$UNITMODE
70
0
9
$VISRETAIN
70
1
9
$PLINEGEN
70
0
9
$PSLTSCALE
70
1
9
$TREEDEPTH
70
3020
9
$PICKSTYLE
70
1
9
$CMLSTYLE
2
STANDARD
9
$CMLJUST
70
0
9
$CMLSCALE
40
1.0
9
$PROXYGRAPHICS
70
1
9
$MEASUREMENT
70
0
0
ENDSEC
0
SECTION
2
CLASSES
0
ENDSEC
0
SECTION
2
TABLES
0
TABLE
2
VPORT
5
8
100
AcDbSymbolTable
70
3
0
VPORT
5
5A
100
AcDbSymbolTableRecord
100
AcDbViewportTableRecord
2
*ACTIVE
70
0
10
0.0
20
0.0
11
1.0
21
1.0
12
7.623626
22
4.5
13
0.0
23
0.0
14
0.5
24
0.5
15
0.5
25
0.5
16
0.0
26
0.0
36
1.0
17
0.0
27
0.0
37
0.0
40
9.0
41
1.694139
42
50.0
43
0.0
44
0.0
50
0.0
51
0.0
71
0
72
100
73
1
74
1
75
0
76
0
77
0
78
0
0
ENDTAB
0
TABLE
2
LTYPE
5
5
100
AcDbSymbolTable
70
1
0
LTYPE
5
13
100
AcDbSymbolTableRecord
100
AcDbLinetypeTableRecord
2
BYBLOCK
70
0
3

72
65
73
0
40
0.0
0
LTYPE
5
14
100
AcDbSymbolTableRecord
100
AcDbLinetypeTableRecord
2
BYLAYER
70
0
3

72
65
73
0
40
0.0
0
LTYPE
5
15
100
AcDbSymbolTableRecord
100
AcDbLinetypeTableRecord
2
CONTINUOUS
70
0
3
Solid line
72
65
73
0
40
0.0
0
ENDTAB
0
TABLE
2
LAYER
5
2
100
AcDbSymbolTable
70
10
0
LAYER
5
F
100
AcDbSymbolTableRecord
100
AcDbLayerTableRecord
2
0
70
0
62
7
6
CONTINUOUS
0
LAYER
5
4C
100
AcDbSymbolTableRecord
100
AcDbLayerTableRecord
2
FRAMES
70
0
62
2
6
CONTINUOUS
0
LAYER
5
4D
100
AcDbSymbolTableRecord
100
AcDbLayerTableRecord
2
JOINTS
70
0
62
2
6
CONTINUOUS
0
LAYER
5
4E
100
AcDbSymbolTableRecord
100
AcDbLayerTableRecord
2
SHELLS
70
0
62
1
6
CONTINUOUS
0
LAYER
5
4F
100
AcDbSymbolTableRecord
100
AcDbLayerTableRecord
2
GRIDS
70
0
62
8
6
CONTINUOUS
0
LAYER
5
50
100
AcDbSymbolTableRecord
100
AcDbLayerTableRecord
2
PLANES
70
0
62
5
6
CONTINUOUS
0
LAYER
5
51
100
AcDbSymbolTableRecord
100
AcDbLayerTableRecord
2
ASOLIDS
70
0
62
6
6
CONTINUOUS
0
LAYER
5
52
100
AcDbSymbolTableRecord
100
AcDbLayerTableRecord
2
SOLIDS
70
0
62
7
6
CONTINUOUS
0
LAYER
5
53
100
AcDbSymbolTableRecord
100
AcDbLayerTableRecord
2
TEXT
70
0
62
94
6
CONTINUOUS
0
LAYER
5
58
100
AcDbSymbolTableRecord
100
AcDbLayerTableRecord
2
NLLINKS
70
0
62
3
6
CONTINUOUS
0
ENDTAB
0
TABLE
2
STYLE
5
3
100
AcDbSymbolTable
70
1
0
STYLE
5
10
100
AcDbSymbolTableRecord
100
AcDbTextStyleTableRecord
2
STANDARD
70
0
40
0.0
41
1.0
50
0.0
71
0
42
0.2
3
txt
4

0
ENDTAB
0
TABLE
2
VIEW
5
6
100
AcDbSymbolTable
70
0
0
ENDTAB
0
TABLE
2
UCS
5
7
100
AcDbSymbolTable
70
0
0
ENDTAB
0
TABLE
2
APPID
5
9
100
AcDbSymbolTable
70
1
0
APPID
5
11
100
AcDbSymbolTableRecord
100
AcDbRegAppTableRecord
2
ACAD
70
0
0
ENDTAB
0
TABLE
2
DIMSTYLE
5
A
100
AcDbSymbolTable
70
1
0
DIMSTYLE
105
1D
100
AcDbSymbolTableRecord
100
AcDbDimStyleTableRecord
2
STANDARD
70
0
3

4

5

6

7

40
1.0
41
0.18
42
0.0625
43
0.38
44
0.18
45
0.0
46
0.0
47
0.0
48
0.0
140
0.18
141
0.09
142
0.0
143
25.4
144
1.0
145
0.0
146
1.0
147
0.09
71
0
72
0
73
1
74
1
75
0
76
0
77
0
78
0
170
0
171
2
172
0
173
0
174
0
175
0
176
0
177
0
178
0
270
2
271
4
272
4
273
2
274
2
340
10
275
0
280
0
281
0
282
0
283
1
284
0
285
0
286
0
287
3
288
0
0
ENDTAB
0
TABLE
2
BLOCK_RECORD
5
1
100
AcDbSymbolTable
70
0
0
BLOCK_RECORD
5
19
100
AcDbSymbolTableRecord
100
AcDbBlockTableRecord
2
*MODEL_SPACE
0
BLOCK_RECORD
5
16
100
AcDbSymbolTableRecord
100
AcDbBlockTableRecord
2
*PAPER_SPACE
0
ENDTAB
0
ENDSEC
0
SECTION
2
BLOCKS
0
BLOCK
5
1A
100
AcDbEntity
8
0
100
AcDbBlockBegin
2
*MODEL_SPACE
70
0
10
0.0
20
0.0
30
0.0
3
*MODEL_SPACE
1

0
ENDBLK
5
1B
100
AcDbEntity
8
0
100
AcDbBlockEnd
0
BLOCK
5
17
100
AcDbEntity
67
1
8
0
100
AcDbBlockBegin
2
*PAPER_SPACE
70
0
10
0.0
20
0.0
30
0.0
3
*PAPER_SPACE
1

0
ENDBLK
5
18
100
AcDbEntity
67
1
8
0
100
AcDbBlockEnd
0
ENDSEC
0
SECTION
2
ENTITIES
0
LINE
5
BB320
100
AcDbEntity
8
FRAMES
100
AcDbLine
10
-30
20
-22.5
30
0
11
-30
21
-22.5
31
12
0
LINE
5
BB321
100
AcDbEntity
8
FRAMES
100
AcDbLine
10
-30
20
-22.5
30
12
11
-30
21
-22.5
31
24
0
LINE
5
BB322
100
AcDbEntity
8
FRAMES
100
AcDbLine
10
-30
20
-7.5
30
0
11
-30
21
-7.5
31
12
0
LINE
5
BB323
100
AcDbEntity
8
FRAMES
100
AcDbLine
10
-30
20
-7.5
30
12
11
-30
21
-7.5
31
24
0
LINE
5
BB324
100
AcDbEntity
8
FRAMES
100
AcDbLine
10
-30
20
7.5
30
0
11
-30
21
7.5
31
12
0
LINE
5
BB325
100
AcDbEntity
8
FRAMES
100
AcDbLine
10
-30
20
7.5
30
12
11
-30
21
7.5
31
24
0
LINE
5
BB326
100
AcDbEntity
8
FRAMES
100
AcDbLine
10
-30
20
25
30
0
11
-30
21
25
31
12
0
LINE
5
BB327
100
AcDbEntity
8
FRAMES
100
AcDbLine
10
-30
20
25
30
12
11
-30
21
25
31
24
0
LINE
5
BB328
100
AcDbEntity
8
FRAMES
100
AcDbLine
10
-10
20
-22.5
30
0
11
-10
21
-22.5
31
12
0
LINE
5
BB329
100
AcDbEntity
8
FRAMES
100
AcDbLine
10
-10
20
-22.5
30
12
11
-10
21
-22.5
31
24
0
LINE
5
BB32A
100
AcDbEntity
8
FRAMES
100
AcDbLine
10
-10
20
-7.5
30
0
11
-10
21
-7.5
31
12
0
LINE
5
BB32B
100
AcDbEntity
8
FRAMES
100
AcDbLine
10
-10
20
-7.5
30
12
11
-10
21
-7.5
31
24
0
LINE
5
BB32C
100
AcDbEntity
8
FRAMES
100
AcDbLine
10
-10
20
7.5
30
0
11
-10
21
7.5
31
12
0
LINE
5
BB32D
100
AcDbEntity
8
FRAMES
100
AcDbLine
10
-10
20
7.5
30
12
11
-10
21
7.5
31
24
0
LINE
5
BB32E
100
AcDbEntity
8
FRAMES
100
AcDbLine
10
-10
20
22.5
30
0
11
-10
21
22.5
31
12
0
LINE
5
BB32F
100
AcDbEntity
8
FRAMES
100
AcDbLine
10
-10
20
22.5
30
12
11
-10
21
22.5
31
24
0
LINE
5
BB330
100
AcDbEntity
8
FRAMES
100
AcDbLine
10
10
20
-22.5
30
0
11
10
21
-22.5
31
12
0
LINE
5
BB331
100
AcDbEntity
8
FRAMES
100
AcDbLine
10
10
20
-22.5
30
12
11
10
21
-22.5
31
24
0
LINE
5
BB332
100
AcDbEntity
8
FRAMES
100
AcDbLine
10
10
20
-7.5
30
0
11
10
21
-7.5
31
12
0
LINE
5
BB333
100
AcDbEntity
8
FRAMES
100
AcDbLine
10
10
20
-7.5
30
12
11
10
21
-7.5
31
24
0
LINE
5
BB334
100
AcDbEntity
8
FRAMES
100
AcDbLine
10
10
20
7.5
30
0
11
10
21
7.5
31
12
0
LINE
5
BB335
100
AcDbEntity
8
FRAMES
100
AcDbLine
10
10
20
7.5
30
12
11
10
21
7.5
31
24
0
LINE
5
BB336
100
AcDbEntity
8
FRAMES
100
AcDbLine
10
10
20
20
30
0
11
10
21
20
31
12
0
LINE
5
BB337
100
AcDbEntity
8
FRAMES
100
AcDbLine
10
10
20
20
30
12
11
10
21
20
31
24
0
LINE
5
BB338
100
AcDbEntity
8
FRAMES
100
AcDbLine
10
30
20
-22.5
30
0
11
30
21
-22.5
31
12
0
LINE
5
BB339
100
AcDbEntity
8
FRAMES
100
AcDbLine
10
30
20
-22.5
30
12
11
30
21
-22.5
31
24
0
LINE
5
BB33A
100
AcDbEntity
8
FRAMES
100
AcDbLine
10
30
20
-7.5
30
0
11
30
21
-7.5
31
12
0
LINE
5
BB33B
100
AcDbEntity
8
FRAMES
100
AcDbLine
10
30
20
-7.5
30
12
11
30
21
-7.5
31
24
0
LINE
5
BB33C
100
AcDbEntity
8
FRAMES
100
AcDbLine
10
30
20
7.5
30
0
11
30
21
7.5
31
12
0
LINE
5
BB33D
100
AcDbEntity
8
FRAMES
100
AcDbLine
10
30
20
7.5
30
12
11
30
21
7.5
31
24
0
LINE
5
BB33E
100
AcDbEntity
8
FRAMES
100
AcDbLine
10
30
20
17.5
30
0
11
30
21
17.5
31
12
0
LINE
5
BB33F
100
AcDbEntity
8
FRAMES
100
AcDbLine
10
30
20
17.5
30
12
11
30
21
17.5
31
24
0
LINE
5
BB340
100
AcDbEntity
8
FRAMES
100
AcDbLine
10
-30
20
-22.5
30
12
11
-10
21
-22.5
31
12
0
LINE
5
BB341
100
AcDbEntity
8
FRAMES
100
AcDbLine
10
-30
20
-22.5
30
24
11
-10
21
-22.5
31
24
0
LINE
5
BB342
100
AcDbEntity
8
FRAMES
100
AcDbLine
10
-10
20
-22.5
30
12
11
10
21
-22.5
31
12
0
LINE
5
BB343
100
AcDbEntity
8
FRAMES
100
AcDbLine
10
-10
20
-22.5
30
24
11
10
21
-22.5
31
24
0
LINE
5
BB344
100
AcDbEntity
8
FRAMES
100
AcDbLine
10
10
20
-22.5
30
12
11
30
21
-22.5
31
12
0
LINE
5
BB345
100
AcDbEntity
8
FRAMES
100
AcDbLine
10
10
20
-22.5
30
24
11
30
21
-22.5
31
24
0
LINE
5
BB346
100
AcDbEntity
8
FRAMES
100
AcDbLine
10
-30
20
-7.5
30
12
11
-10
21
-7.5
31
12
0
LINE
5
BB347
100
AcDbEntity
8
FRAMES
100
AcDbLine
10
-30
20
-7.5
30
24
11
-10
21
-7.5
31
24
0
LINE
5
BB348
100
AcDbEntity
8
FRAMES
100
AcDbLine
10
-10
20
-7.5
30
12
11
10
21
-7.5
31
12
0
LINE
5
BB349
100
AcDbEntity
8
FRAMES
100
AcDbLine
10
-10
20
-7.5
30
24
11
10
21
-7.5
31
24
0
LINE
5
BB34A
100
AcDbEntity
8
FRAMES
100
AcDbLine
10
10
20
-7.5
30
12
11
30
21
-7.5
31
12
0
LINE
5
BB34B
100
AcDbEntity
8
FRAMES
100
AcDbLine
10
10
20
-7.5
30
24
11
30
21
-7.5
31
24
0
LINE
5
BB34C
100
AcDbEntity
8
FRAMES
100
AcDbLine
10
-30
20
7.5
30
12
11
-10
21
7.5
31
12
0
LINE
5
BB34D
100
AcDbEntity
8
FRAMES
100
AcDbLine
10
-30
20
7.5
30
24
11
-10
21
7.5
31
24
0
LINE
5
BB34E
100
AcDbEntity
8
FRAMES
100
AcDbLine
10
-10
20
7.5
30
12
11
10
21
7.5
31
12
0
LINE
5
BB34F
100
AcDbEntity
8
FRAMES
100
AcDbLine
10
-10
20
7.5
30
24
11
10
21
7.5
31
24
0
LINE
5
BB350
100
AcDbEntity
8
FRAMES
100
AcDbLine
10
10
20
7.5
30
12
11
30
21
7.5
31
12
0
LINE
5
BB351
100
AcDbEntity
8
FRAMES
100
AcDbLine
10
10
20
7.5
30
24
11
30
21
7.5
31
24
0
LINE
5
BB352
100
AcDbEntity
8
FRAMES
100
AcDbLine
10
-30
20
25
30
12
11
-10
21
22.5
31
12
0
LINE
5
BB353
100
AcDbEntity
8
FRAMES
100
AcDbLine
10
-30
20
25
30
24
11
-10
21
22.5
31
24
0
LINE
5
BB354
100
AcDbEntity
8
FRAMES
100
AcDbLine
10
-10
20
22.5
30
12
11
10
21
20
31
12
0
LINE
5
BB355
100
AcDbEntity
8
FRAMES
100
AcDbLine
10
-10
20
22.5
30
24
11
10
21
20
31
24
0
LINE
5
BB356
100
AcDbEntity
8
FRAMES
100
AcDbLine
10
10
20
20
30
12
11
30
21
17.5
31
12
0
LINE
5
BB357
100
AcDbEntity
8
FRAMES
100
AcDbLine
10
10
20
20
30
24
11
30
21
17.5
31
24
0
LINE
5
BB358
100
AcDbEntity
8
FRAMES
100
AcDbLine
10
-30
20
-22.5
30
12
11
-30
21
-7.5
31
12
0
LINE
5
BB359
100
AcDbEntity
8
FRAMES
100
AcDbLine
10
-30
20
-22.5
30
24
11
-30
21
-7.5
31
24
0
LINE
5
BB35A
100
AcDbEntity
8
FRAMES
100
AcDbLine
10
-30
20
-7.5
30
12
11
-30
21
7.5
31
12
0
LINE
5
BB35B
100
AcDbEntity
8
FRAMES
100
AcDbLine
10
-30
20
-7.5
30
24
11
-30
21
7.5
31
24
0
LINE
5
BB35C
100
AcDbEntity
8
FRAMES
100
AcDbLine
10
-30
20
7.5
30
12
11
-30
21
25
31
12
0
LINE
5
BB35D
100
AcDbEntity
8
FRAMES
100
AcDbLine
10
-30
20
7.5
30
24
11
-30
21
25
31
24
0
LINE
5
BB35E
100
AcDbEntity
8
FRAMES
100
AcDbLine
10
-10
20
-22.5
30
12
11
-10
21
-7.5
31
12
0
LINE
5
BB35F
100
AcDbEntity
8
FRAMES
100
AcDbLine
10
-10
20
-22.5
30
24
11
-10
21
-7.5
31
24
0
LINE
5
BB360
100
AcDbEntity
8
FRAMES
100
AcDbLine
10
-10
20
-7.5
30
12
11
-10
21
7.5
31
12
0
LINE
5
BB361
100
AcDbEntity
8
FRAMES
100
AcDbLine
10
-10
20
-7.5
30
24
11
-10
21
7.5
31
24
0
LINE
5
BB362
100
AcDbEntity
8
FRAMES
100
AcDbLine
10
-10
20
7.5
30
12
11
-10
21
22.5
31
12
0
LINE
5
BB363
100
AcDbEntity
8
FRAMES
100
AcDbLine
10
-10
20
7.5
30
24
11
-10
21
22.5
31
24
0
LINE
5
BB364
100
AcDbEntity
8
FRAMES
100
AcDbLine
10
10
20
-22.5
30
12
11
10
21
-7.5
31
12
0
LINE
5
BB365
100
AcDbEntity
8
FRAMES
100
AcDbLine
10
10
20
-22.5
30
24
11
10
21
-7.5
31
24
0
LINE
5
BB366
100
AcDbEntity
8
FRAMES
100
AcDbLine
10
10
20
-7.5
30
12
11
10
21
7.5
31
12
0
LINE
5
BB367
100
AcDbEntity
8
FRAMES
100
AcDbLine
10
10
20
-7.5
30
24
11
10
21
7.5
31
24
0
LINE
5
BB368
100
AcDbEntity
8
FRAMES
100
AcDbLine
10
10
20
7.5
30
12
11
10
21
20
31
12
0
LINE
5
BB369
100
AcDbEntity
8
FRAMES
100
AcDbLine
10
10
20
7.5
30
24
11
10
21
20
31
24
0
LINE
5
BB36A
100
AcDbEntity
8
FRAMES
100
AcDbLine
10
30
20
-22.5
30
12
11
30
21
-7.5
31
12
0
LINE
5
BB36B
100
AcDbEntity
8
FRAMES
100
AcDbLine
10
30
20
-22.5
30
24
11
30
21
-7.5
31
24
0
LINE
5
BB36C
100
AcDbEntity
8
FRAMES
100
AcDbLine
10
30
20
-7.5
30
12
11
30
21
7.5
31
12
0
LINE
5
BB36D
100
AcDbEntity
8
FRAMES
100
AcDbLine
10
30
20
-7.5
30
24
11
30
21
7.5
31
24
0
LINE
5
BB36E
100
AcDbEntity
8
FRAMES
100
AcDbLine
10
30
20
7.5
30
12
11
30
21
17.5
31
12
0
LINE
5
BB36F
100
AcDbEntity
8
FRAMES
100
AcDbLine
10
30
20
7.5
30
24
11
30
21
17.5
31
24
0
POINT
5
BB370
100
AcDbEntity
8
JOINTS
100
AcDbPoint
10
-30
20
-22.5
30
0
0
POINT
5
BB371
100
AcDbEntity
8
JOINTS
100
AcDbPoint
10
-30
20
-22.5
30
12
0
POINT
5
BB372
100
AcDbEntity
8
JOINTS
100
AcDbPoint
10
-30
20
-22.5
30
24
0
POINT
5
BB373
100
AcDbEntity
8
JOINTS
100
AcDbPoint
10
-30
20
-7.5
30
0
0
POINT
5
BB374
100
AcDbEntity
8
JOINTS
100
AcDbPoint
10
-30
20
-7.5
30
12
0
POINT
5
BB375
100
AcDbEntity
8
JOINTS
100
AcDbPoint
10
-30
20
-7.5
30
24
0
POINT
5
BB376
100
AcDbEntity
8
JOINTS
100
AcDbPoint
10
-30
20
7.5
30
0
0
POINT
5
BB377
100
AcDbEntity
8
JOINTS
100
AcDbPoint
10
-30
20
7.5
30
12
0
POINT
5
BB378
100
AcDbEntity
8
JOINTS
100
AcDbPoint
10
-30
20
7.5
30
24
0
POINT
5
BB379
100
AcDbEntity
8
JOINTS
100
AcDbPoint
10
-30
20
25
30
0
0
POINT
5
BB37A
100
AcDbEntity
8
JOINTS
100
AcDbPoint
10
-30
20
25
30
12
0
POINT
5
BB37B
100
AcDbEntity
8
JOINTS
100
AcDbPoint
10
-30
20
25
30
24
0
POINT
5
BB37C
100
AcDbEntity
8
JOINTS
100
AcDbPoint
10
-10
20
-22.5
30
0
0
POINT
5
BB37D
100
AcDbEntity
8
JOINTS
100
AcDbPoint
10
-10
20
-22.5
30
12
0
POINT
5
BB37E
100
AcDbEntity
8
JOINTS
100
AcDbPoint
10
-10
20
-22.5
30
24
0
POINT
5
BB37F
100
AcDbEntity
8
JOINTS
100
AcDbPoint
10
-10
20
-7.5
30
0
0
POINT
5
BB380
100
AcDbEntity
8
JOINTS
100
AcDbPoint
10
-10
20
-7.5
30
12
0
POINT
5
BB381
100
AcDbEntity
8
JOINTS
100
AcDbPoint
10
-10
20
-7.5
30
24
0
POINT
5
BB382
100
AcDbEntity
8
JOINTS
100
AcDbPoint
10
-10
20
7.5
30
0
0
POINT
5
BB383
100
AcDbEntity
8
JOINTS
100
AcDbPoint
10
-10
20
7.5
30
12
0
POINT
5
BB384
100
AcDbEntity
8
JOINTS
100
AcDbPoint
10
-10
20
7.5
30
24
0
POINT
5
BB385
100
AcDbEntity
8
JOINTS
100
AcDbPoint
10
-10
20
22.5
30
0
0
POINT
5
BB386
100
AcDbEntity
8
JOINTS
100
AcDbPoint
10
-10
20
22.5
30
12
0
POINT
5
BB387
100
AcDbEntity
8
JOINTS
100
AcDbPoint
10
-10
20
22.5
30
24
0
POINT
5
BB388
100
AcDbEntity
8
JOINTS
100
AcDbPoint
10
10
20
-22.5
30
0
0
POINT
5
BB389
100
AcDbEntity
8
JOINTS
100
AcDbPoint
10
10
20
-22.5
30
12
0
POINT
5
BB38A
100
AcDbEntity
8
JOINTS
100
AcDbPoint
10
10
20
-22.5
30
24
0
POINT
5
BB38B
100
AcDbEntity
8
JOINTS
100
AcDbPoint
10
10
20
-7.5
30
0
0
POINT
5
BB38C
100
AcDbEntity
8
JOINTS
100
AcDbPoint
10
10
20
-7.5
30
12
0
POINT
5
BB38D
100
AcDbEntity
8
JOINTS
100
AcDbPoint
10
10
20
-7.5
30
24
0
POINT
5
BB38E
100
AcDbEntity
8
JOINTS
100
AcDbPoint
10
10
20
7.5
30
0
0
POINT
5
BB38F
100
AcDbEntity
8
JOINTS
100
AcDbPoint
10
10
20
7.5
30
12
0
POINT
5
BB390
100
AcDbEntity
8
JOINTS
100
AcDbPoint
10
10
20
7.5
30
24
0
POINT
5
BB391
100
AcDbEntity
8
JOINTS
100
AcDbPoint
10
10
20
20
30
0
0
POINT
5
BB392
100
AcDbEntity
8
JOINTS
100
AcDbPoint
10
10
20
20
30
12
0
POINT
5
BB393
100
AcDbEntity
8
JOINTS
100
AcDbPoint
10
10
20
20
30
24
0
POINT
5
BB394
100
AcDbEntity
8
JOINTS
100
AcDbPoint
10
30
20
-22.5
30
0
0
POINT
5
BB395
100
AcDbEntity
8
JOINTS
100
AcDbPoint
10
30
20
-22.5
30
12
0
POINT
5
BB396
100
AcDbEntity
8
JOINTS
100
AcDbPoint
10
30
20
-22.5
30
24
0
POINT
5
BB397
100
AcDbEntity
8
JOINTS
100
AcDbPoint
10
30
20
-7.5
30
0
0
POINT
5
BB398
100
AcDbEntity
8
JOINTS
100
AcDbPoint
10
30
20
-7.5
30
12
0
POINT
5
BB399
100
AcDbEntity
8
JOINTS
100
AcDbPoint
10
30
20
-7.5
30
24
0
POINT
5
BB39A
100
AcDbEntity
8
JOINTS
100
AcDbPoint
10
30
20
7.5
30
0
0
POINT
5
BB39B
100
AcDbEntity
8
JOINTS
100
AcDbPoint
10
30
20
7.5
30
12
0
POINT
5
BB39C
100
AcDbEntity
8
JOINTS
100
AcDbPoint
10
30
20
7.5
30
24
0
POINT
5
BB39D
100
AcDbEntity
8
JOINTS
100
AcDbPoint
10
30
20
17.5
30
0
0
POINT
5
BB39E
100
AcDbEntity
8
JOINTS
100
AcDbPoint
10
30
20
17.5
30
12
0
POINT
5
BB39F
100
AcDbEntity
8
JOINTS
100
AcDbPoint
10
30
20
17.5
30
24
0
ENDSEC
0
SECTION
2
OBJECTS
0
DICTIONARY
5
C
100
AcDbDictionary
3
ACAD_GROUP
350
D
3
ACAD_MLINESTYLE
350
E
0
DICTIONARY
5
D
102
{ACAD_REACTORS
330
C
102
}
100
AcDbDictionary
0
DICTIONARY
5
E
102
{ACAD_REACTORS
330
C
102
}
100
AcDbDictionary
3
STANDARD
350
1C
0
MLINESTYLE
5
1C
102
{ACAD_REACTORS
330
E
102
}
100
AcDbMlineStyle
2
STANDARD
70
0
3

62
0
51
90.0
52
90.0
71
2
49
0.5
62
256
6
BYLAYER
49
-0.5
62
256
6
BYLAYER
0
ENDSEC
0
EOF
