0
SECTION
2
HEADER
9
$ACADVER
1
AC1014
9
$ACADMAINTVER
70
8
9
$DWGCODEPAGE
3
ANSI_1252
9
$INSBASE
10
0.0
20
0.0
30
0.0
9
$EXTMIN
10
1.000000E+20
20
1.000000E+20
30
1.000000E+20
9
$EXTMAX
10
-1.000000E+20
20
-1.000000E+20
30
-1.000000E+20
9
$LIMMIN
10
0.0
20
0.0
9
$LIMMAX
10
12.0
20
9.0
9
$ORTHOMODE
70
0
9
$REGENMODE
70
1
9
$FILLMODE
70
1
9
$QTEXTMODE
70
0
9
$MIRRTEXT
70
1
9
$DRAGMODE
70
2
9
$LTSCALE
40
1.0
9
$OSMODE
70
0
9
$ATTMODE
70
1
9
$TEXTSIZE
40
0.2
9
$TRACEWID
40
0.05
9
$TEXTSTYLE
7
STANDARD
9
$CLAYER
8
0
9
$CELTYPE
6
BYLAYER
9
$CECOLOR
62
256
9
$CELTSCALE
40
1.0
9
$DELOBJ
70
1
9
$DISPSILH
70
0
9
$DIMSCALE
40
1.0
9
$DIMASZ
40
0.18
9
$DIMEXO
40
0.0625
9
$DIMDLI
40
0.38
9
$DIMRND
40
0.0
9
$DIMDLE
40
0.0
9
$DIMEXE
40
0.18
9
$DIMTP
40
0.0
9
$DIMTM
40
0.0
9
$DIMTXT
40
0.18
9
$DIMCEN
40
0.09
9
$DIMTSZ
40
0.0
9
$DIMTOL
70
0
9
$DIMLIM
70
0
9
$DIMTIH
70
1
9
$DIMTOH
70
1
9
$DIMSE1
70
0
9
$DIMSE2
70
0
9
$DIMTAD
70
0
9
$DIMZIN
70
0
9
$DIMBLK
1

9
$DIMASO
70
1
9
$DIMSHO
70
1
9
$DIMPOST
1

9
$DIMAPOST
1

9
$DIMALT
70
0
9
$DIMALTD
70
2
9
$DIMALTF
40
25.4
9
$DIMLFAC
40
1.0
9
$DIMTOFL
70
0
9
$DIMTVP
40
0.0
9
$DIMTIX
70
0
9
$DIMSOXD
70
0
9
$DIMSAH
70
0
9
$DIMBLK1
1

9
$DIMBLK2
1

9
$DIMSTYLE
2
STANDARD
9
$DIMCLRD
70
0
9
$DIMCLRE
70
0
9
$DIMCLRT
70
0
9
$DIMTFAC
40
1.0
9
$DIMGAP
40
0.09
9
$DIMJUST
70
0
9
$DIMSD1
70
0
9
$DIMSD2
70
0
9
$DIMTOLJ
70
1
9
$DIMTZIN
70
0
9
$DIMALTZ
70
0
9
$DIMALTTZ
70
0
9
$DIMFIT
70
3
9
$DIMUPT
70
0
9
$DIMUNIT
70
2
9
$DIMDEC
70
4
9
$DIMTDEC
70
4
9
$DIMALTU
70
2
9
$DIMALTTD
70
2
9
$DIMTXSTY
7
STANDARD
9
$DIMAUNIT
70
0
9
$LUNITS
70
2
9
$LUPREC
70
4
9
$SKETCHINC
40
0.1
9
$FILLETRAD
40
0.5
9
$AUNITS
70
0
9
$AUPREC
70
0
9
$MENU
1
.
9
$ELEVATION
40
0.0
9
$PELEVATION
40
0.0
9
$THICKNESS
40
0.0
9
$LIMCHECK
70
0
9
$BLIPMODE
70
0
9
$CHAMFERA
40
0.5
9
$CHAMFERB
40
0.5
9
$CHAMFERC
40
1.0
9
$CHAMFERD
40
0.0
9
$SKPOLY
70
1
9
$TDCREATE
40
2451008.519973958
9
$TDUPDATE
40
2451008.523538426
9
$TDINDWG
40
0.0024055556
9
$TDUSRTIMER
40
0.0024055556
9
$USRTIMER
70
1
9
$ANGBASE
50
0.0
9
$ANGDIR
70
0
9
$PDMODE
70
0
9
$PDSIZE
40
0.0
9
$PLINEWID
40
0.0
9
$COORDS
70
1
9
$SPLFRAME
70
0
9
$SPLINETYPE
70
6
9
$SPLINESEGS
70
8
9
$ATTDIA
70
0
9
$ATTREQ
70
1
9
$HANDLING
70
1
9
$HANDSEED
5
5B
9
$SURFTAB1
70
6
9
$SURFTAB2
70
6
9
$SURFTYPE
70
6
9
$SURFU
70
6
9
$SURFV
70
6
9
$UCSNAME
2

9
$UCSORG
10
0.0
20
0.0
30
0.0
9
$UCSXDIR
10
1.0
20
0.0
30
0.0
9
$UCSYDIR
10
0.0
20
1.0
30
0.0
9
$PUCSNAME
2

9
$PUCSORG
10
0.0
20
0.0
30
0.0
9
$PUCSXDIR
10
1.0
20
0.0
30
0.0
9
$PUCSYDIR
10
0.0
20
1.0
30
0.0
9
$USERI1
70
0
9
$USERI2
70
0
9
$USERI3
70
0
9
$USERI4
70
0
9
$USERI5
70
0
9
$USERR1
40
0.0
9
$USERR2
40
0.0
9
$USERR3
40
0.0
9
$USERR4
40
0.0
9
$USERR5
40
0.0
9
$WORLDVIEW
70
1
9
$SHADEDGE
70
3
9
$SHADEDIF
70
70
9
$TILEMODE
70
1
9
$MAXACTVP
70
48
9
$PINSBASE
10
0.0
20
0.0
30
0.0
9
$PLIMCHECK
70
0
9
$PEXTMIN
10
1.000000E+20
20
1.000000E+20
30
1.000000E+20
9
$PEXTMAX
10
-1.000000E+20
20
-1.000000E+20
30
-1.000000E+20
9
$PLIMMIN
10
0.0
20
0.0
9
$PLIMMAX
10
12.0
20
9.0
9
$UNITMODE
70
0
9
$VISRETAIN
70
1
9
$PLINEGEN
70
0
9
$PSLTSCALE
70
1
9
$TREEDEPTH
70
3020
9
$PICKSTYLE
70
1
9
$CMLSTYLE
2
STANDARD
9
$CMLJUST
70
0
9
$CMLSCALE
40
1.0
9
$PROXYGRAPHICS
70
1
9
$MEASUREMENT
70
0
0
ENDSEC
0
SECTION
2
CLASSES
0
ENDSEC
0
SECTION
2
TABLES
0
TABLE
2
VPORT
5
8
100
AcDbSymbolTable
70
3
0
VPORT
5
5A
100
AcDbSymbolTableRecord
100
AcDbViewportTableRecord
2
*ACTIVE
70
0
10
0.0
20
0.0
11
1.0
21
1.0
12
7.623626
22
4.5
13
0.0
23
0.0
14
0.5
24
0.5
15
0.5
25
0.5
16
0.0
26
0.0
36
1.0
17
0.0
27
0.0
37
0.0
40
9.0
41
1.694139
42
50.0
43
0.0
44
0.0
50
0.0
51
0.0
71
0
72
100
73
1
74
1
75
0
76
0
77
0
78
0
0
ENDTAB
0
TABLE
2
LTYPE
5
5
100
AcDbSymbolTable
70
1
0
LTYPE
5
13
100
AcDbSymbolTableRecord
100
AcDbLinetypeTableRecord
2
BYBLOCK
70
0
3

72
65
73
0
40
0.0
0
LTYPE
5
14
100
AcDbSymbolTableRecord
100
AcDbLinetypeTableRecord
2
BYLAYER
70
0
3

72
65
73
0
40
0.0
0
LTYPE
5
15
100
AcDbSymbolTableRecord
100
AcDbLinetypeTableRecord
2
CONTINUOUS
70
0
3
Solid line
72
65
73
0
40
0.0
0
ENDTAB
0
TABLE
2
LAYER
5
2
100
AcDbSymbolTable
70
10
0
LAYER
5
F
100
AcDbSymbolTableRecord
100
AcDbLayerTableRecord
2
0
70
0
62
7
6
CONTINUOUS
0
LAYER
5
4C
100
AcDbSymbolTableRecord
100
AcDbLayerTableRecord
2
FRAMES
70
0
62
2
6
CONTINUOUS
0
LAYER
5
4D
100
AcDbSymbolTableRecord
100
AcDbLayerTableRecord
2
JOINTS
70
0
62
2
6
CONTINUOUS
0
LAYER
5
4E
100
AcDbSymbolTableRecord
100
AcDbLayerTableRecord
2
SHELLS
70
0
62
1
6
CONTINUOUS
0
LAYER
5
4F
100
AcDbSymbolTableRecord
100
AcDbLayerTableRecord
2
GRIDS
70
0
62
8
6
CONTINUOUS
0
LAYER
5
50
100
AcDbSymbolTableRecord
100
AcDbLayerTableRecord
2
PLANES
70
0
62
5
6
CONTINUOUS
0
LAYER
5
51
100
AcDbSymbolTableRecord
100
AcDbLayerTableRecord
2
ASOLIDS
70
0
62
6
6
CONTINUOUS
0
LAYER
5
52
100
AcDbSymbolTableRecord
100
AcDbLayerTableRecord
2
SOLIDS
70
0
62
7
6
CONTINUOUS
0
LAYER
5
53
100
AcDbSymbolTableRecord
100
AcDbLayerTableRecord
2
TEXT
70
0
62
94
6
CONTINUOUS
0
LAYER
5
58
100
AcDbSymbolTableRecord
100
AcDbLayerTableRecord
2
NLLINKS
70
0
62
3
6
CONTINUOUS
0
ENDTAB
0
TABLE
2
STYLE
5
3
100
AcDbSymbolTable
70
1
0
STYLE
5
10
100
AcDbSymbolTableRecord
100
AcDbTextStyleTableRecord
2
STANDARD
70
0
40
0.0
41
1.0
50
0.0
71
0
42
0.2
3
txt
4

0
ENDTAB
0
TABLE
2
VIEW
5
6
100
AcDbSymbolTable
70
0
0
ENDTAB
0
TABLE
2
UCS
5
7
100
AcDbSymbolTable
70
0
0
ENDTAB
0
TABLE
2
APPID
5
9
100
AcDbSymbolTable
70
1
0
APPID
5
11
100
AcDbSymbolTableRecord
100
AcDbRegAppTableRecord
2
ACAD
70
0
0
ENDTAB
0
TABLE
2
DIMSTYLE
5
A
100
AcDbSymbolTable
70
1
0
DIMSTYLE
105
1D
100
AcDbSymbolTableRecord
100
AcDbDimStyleTableRecord
2
STANDARD
70
0
3

4

5

6

7

40
1.0
41
0.18
42
0.0625
43
0.38
44
0.18
45
0.0
46
0.0
47
0.0
48
0.0
140
0.18
141
0.09
142
0.0
143
25.4
144
1.0
145
0.0
146
1.0
147
0.09
71
0
72
0
73
1
74
1
75
0
76
0
77
0
78
0
170
0
171
2
172
0
173
0
174
0
175
0
176
0
177
0
178
0
270
2
271
4
272
4
273
2
274
2
340
10
275
0
280
0
281
0
282
0
283
1
284
0
285
0
286
0
287
3
288
0
0
ENDTAB
0
TABLE
2
BLOCK_RECORD
5
1
100
AcDbSymbolTable
70
0
0
BLOCK_RECORD
5
19
100
AcDbSymbolTableRecord
100
AcDbBlockTableRecord
2
*MODEL_SPACE
0
BLOCK_RECORD
5
16
100
AcDbSymbolTableRecord
100
AcDbBlockTableRecord
2
*PAPER_SPACE
0
ENDTAB
0
ENDSEC
0
SECTION
2
BLOCKS
0
BLOCK
5
1A
100
AcDbEntity
8
0
100
AcDbBlockBegin
2
*MODEL_SPACE
70
0
10
0.0
20
0.0
30
0.0
3
*MODEL_SPACE
1

0
ENDBLK
5
1B
100
AcDbEntity
8
0
100
AcDbBlockEnd
0
BLOCK
5
17
100
AcDbEntity
67
1
8
0
100
AcDbBlockBegin
2
*PAPER_SPACE
70
0
10
0.0
20
0.0
30
0.0
3
*PAPER_SPACE
1

0
ENDBLK
5
18
100
AcDbEntity
67
1
8
0
100
AcDbBlockEnd
0
ENDSEC
0
SECTION
2
ENTITIES
0
LINE
5
B81
100
AcDbEntity
8
FRAMES
100
AcDbLine
10
-96
20
-48
30
0
11
-96
21
-48
31
18
0
LINE
5
B82
100
AcDbEntity
8
FRAMES
100
AcDbLine
10
-96
20
-48
30
18
11
-96
21
-48
31
30
0
LINE
5
B83
100
AcDbEntity
8
FRAMES
100
AcDbLine
10
-96
20
-48
30
30
11
-96
21
-48
31
42
0
LINE
5
B84
100
AcDbEntity
8
FRAMES
100
AcDbLine
10
-96
20
-26
30
0
11
-96
21
-26
31
18
0
LINE
5
B85
100
AcDbEntity
8
FRAMES
100
AcDbLine
10
-96
20
-26
30
18
11
-96
21
-26
31
30
0
LINE
5
B86
100
AcDbEntity
8
FRAMES
100
AcDbLine
10
-96
20
-26
30
30
11
-96
21
-26
31
42
0
LINE
5
B87
100
AcDbEntity
8
FRAMES
100
AcDbLine
10
-96
20
-8
30
0
11
-96
21
-8
31
18
0
LINE
5
B88
100
AcDbEntity
8
FRAMES
100
AcDbLine
10
-96
20
-8
30
18
11
-96
21
-8
31
30
0
LINE
5
B89
100
AcDbEntity
8
FRAMES
100
AcDbLine
10
-96
20
-8
30
30
11
-96
21
-8
31
42
0
LINE
5
B8A
100
AcDbEntity
8
FRAMES
100
AcDbLine
10
-96
20
6
30
0
11
-96
21
6
31
18
0
LINE
5
B8B
100
AcDbEntity
8
FRAMES
100
AcDbLine
10
-96
20
6
30
18
11
-96
21
6
31
30
0
LINE
5
B8C
100
AcDbEntity
8
FRAMES
100
AcDbLine
10
-96
20
6
30
30
11
-96
21
6
31
42
0
LINE
5
B8D
100
AcDbEntity
8
FRAMES
100
AcDbLine
10
-96
20
16
30
0
11
-96
21
16
31
18
0
LINE
5
B8E
100
AcDbEntity
8
FRAMES
100
AcDbLine
10
-96
20
16
30
18
11
-96
21
16
31
30
0
LINE
5
B8F
100
AcDbEntity
8
FRAMES
100
AcDbLine
10
-96
20
16
30
30
11
-96
21
16
31
42
0
LINE
5
B90
100
AcDbEntity
8
FRAMES
100
AcDbLine
10
-72
20
-48
30
0
11
-72
21
-48
31
18
0
LINE
5
B91
100
AcDbEntity
8
FRAMES
100
AcDbLine
10
-72
20
-48
30
18
11
-72
21
-48
31
30
0
LINE
5
B92
100
AcDbEntity
8
FRAMES
100
AcDbLine
10
-72
20
-48
30
30
11
-72
21
-48
31
42
0
LINE
5
B93
100
AcDbEntity
8
FRAMES
100
AcDbLine
10
-72
20
-26
30
0
11
-72
21
-26
31
18
0
LINE
5
B94
100
AcDbEntity
8
FRAMES
100
AcDbLine
10
-72
20
-26
30
18
11
-72
21
-26
31
30
0
LINE
5
B95
100
AcDbEntity
8
FRAMES
100
AcDbLine
10
-72
20
-26
30
30
11
-72
21
-26
31
42
0
LINE
5
B96
100
AcDbEntity
8
FRAMES
100
AcDbLine
10
-72
20
-8
30
0
11
-72
21
-8
31
18
0
LINE
5
B97
100
AcDbEntity
8
FRAMES
100
AcDbLine
10
-72
20
-8
30
18
11
-72
21
-8
31
30
0
LINE
5
B98
100
AcDbEntity
8
FRAMES
100
AcDbLine
10
-72
20
-8
30
30
11
-72
21
-8
31
42
0
LINE
5
B99
100
AcDbEntity
8
FRAMES
100
AcDbLine
10
-72
20
6
30
0
11
-72
21
6
31
18
0
LINE
5
B9A
100
AcDbEntity
8
FRAMES
100
AcDbLine
10
-72
20
6
30
18
11
-72
21
6
31
30
0
LINE
5
B9B
100
AcDbEntity
8
FRAMES
100
AcDbLine
10
-72
20
6
30
30
11
-72
21
6
31
42
0
LINE
5
B9C
100
AcDbEntity
8
FRAMES
100
AcDbLine
10
-72
20
16
30
0
11
-72
21
16
31
18
0
LINE
5
B9D
100
AcDbEntity
8
FRAMES
100
AcDbLine
10
-72
20
16
30
18
11
-72
21
16
31
30
0
LINE
5
B9E
100
AcDbEntity
8
FRAMES
100
AcDbLine
10
-72
20
16
30
30
11
-72
21
16
31
42
0
LINE
5
B9F
100
AcDbEntity
8
FRAMES
100
AcDbLine
10
-48
20
-48
30
0
11
-48
21
-48
31
18
0
LINE
5
BA0
100
AcDbEntity
8
FRAMES
100
AcDbLine
10
-48
20
-48
30
18
11
-48
21
-48
31
30
0
LINE
5
BA1
100
AcDbEntity
8
FRAMES
100
AcDbLine
10
-48
20
-48
30
30
11
-48
21
-48
31
42
0
LINE
5
BA2
100
AcDbEntity
8
FRAMES
100
AcDbLine
10
-48
20
-26
30
0
11
-48
21
-26
31
18
0
LINE
5
BA3
100
AcDbEntity
8
FRAMES
100
AcDbLine
10
-48
20
-26
30
18
11
-48
21
-26
31
30
0
LINE
5
BA4
100
AcDbEntity
8
FRAMES
100
AcDbLine
10
-48
20
-26
30
30
11
-48
21
-26
31
42
0
LINE
5
BA5
100
AcDbEntity
8
FRAMES
100
AcDbLine
10
-48
20
-8
30
0
11
-48
21
-8
31
18
0
LINE
5
BA6
100
AcDbEntity
8
FRAMES
100
AcDbLine
10
-48
20
-8
30
18
11
-48
21
-8
31
30
0
LINE
5
BA7
100
AcDbEntity
8
FRAMES
100
AcDbLine
10
-48
20
-8
30
30
11
-48
21
-8
31
42
0
LINE
5
BA8
100
AcDbEntity
8
FRAMES
100
AcDbLine
10
-48
20
6
30
0
11
-48
21
6
31
18
0
LINE
5
BA9
100
AcDbEntity
8
FRAMES
100
AcDbLine
10
-48
20
6
30
18
11
-48
21
6
31
30
0
LINE
5
BAA
100
AcDbEntity
8
FRAMES
100
AcDbLine
10
-48
20
6
30
30
11
-48
21
6
31
42
0
LINE
5
BAB
100
AcDbEntity
8
FRAMES
100
AcDbLine
10
-48
20
16
30
0
11
-48
21
16
31
18
0
LINE
5
BAC
100
AcDbEntity
8
FRAMES
100
AcDbLine
10
-48
20
16
30
18
11
-48
21
16
31
30
0
LINE
5
BAD
100
AcDbEntity
8
FRAMES
100
AcDbLine
10
-48
20
16
30
30
11
-48
21
16
31
42
0
LINE
5
BAE
100
AcDbEntity
8
FRAMES
100
AcDbLine
10
-24
20
-48
30
0
11
-24
21
-48
31
18
0
LINE
5
BAF
100
AcDbEntity
8
FRAMES
100
AcDbLine
10
-24
20
-48
30
18
11
-24
21
-48
31
30
0
LINE
5
BB0
100
AcDbEntity
8
FRAMES
100
AcDbLine
10
-24
20
-48
30
30
11
-24
21
-48
31
42
0
LINE
5
BB1
100
AcDbEntity
8
FRAMES
100
AcDbLine
10
-24
20
-26
30
0
11
-24
21
-26
31
18
0
LINE
5
BB2
100
AcDbEntity
8
FRAMES
100
AcDbLine
10
-24
20
-26
30
18
11
-24
21
-26
31
30
0
LINE
5
BB3
100
AcDbEntity
8
FRAMES
100
AcDbLine
10
-24
20
-26
30
30
11
-24
21
-26
31
42
0
LINE
5
BB4
100
AcDbEntity
8
FRAMES
100
AcDbLine
10
-24
20
-8
30
0
11
-24
21
-8
31
18
0
LINE
5
BB5
100
AcDbEntity
8
FRAMES
100
AcDbLine
10
-24
20
-8
30
18
11
-24
21
-8
31
30
0
LINE
5
BB6
100
AcDbEntity
8
FRAMES
100
AcDbLine
10
-24
20
-8
30
30
11
-24
21
-8
31
42
0
LINE
5
BB7
100
AcDbEntity
8
FRAMES
100
AcDbLine
10
-24
20
6
30
0
11
-24
21
6
31
18
0
LINE
5
BB8
100
AcDbEntity
8
FRAMES
100
AcDbLine
10
-24
20
6
30
18
11
-24
21
6
31
30
0
LINE
5
BB9
100
AcDbEntity
8
FRAMES
100
AcDbLine
10
-24
20
6
30
30
11
-24
21
6
31
42
0
LINE
5
BBA
100
AcDbEntity
8
FRAMES
100
AcDbLine
10
-24
20
16
30
0
11
-24
21
16
31
18
0
LINE
5
BBB
100
AcDbEntity
8
FRAMES
100
AcDbLine
10
-24
20
16
30
18
11
-24
21
16
31
30
0
LINE
5
BBC
100
AcDbEntity
8
FRAMES
100
AcDbLine
10
-24
20
16
30
30
11
-24
21
16
31
42
0
LINE
5
BBD
100
AcDbEntity
8
FRAMES
100
AcDbLine
10
-12
20
-48
30
0
11
-12
21
-48
31
18
0
LINE
5
BBE
100
AcDbEntity
8
FRAMES
100
AcDbLine
10
-12
20
-48
30
18
11
-12
21
-48
31
30
0
LINE
5
BBF
100
AcDbEntity
8
FRAMES
100
AcDbLine
10
-12
20
-48
30
30
11
-12
21
-48
31
42
0
LINE
5
BC0
100
AcDbEntity
8
FRAMES
100
AcDbLine
10
-12
20
-26
30
0
11
-12
21
-26
31
18
0
LINE
5
BC1
100
AcDbEntity
8
FRAMES
100
AcDbLine
10
-12
20
-26
30
18
11
-12
21
-26
31
30
0
LINE
5
BC2
100
AcDbEntity
8
FRAMES
100
AcDbLine
10
-12
20
-26
30
30
11
-12
21
-26
31
42
0
LINE
5
BC3
100
AcDbEntity
8
FRAMES
100
AcDbLine
10
-12
20
-8
30
0
11
-12
21
-8
31
18
0
LINE
5
BC4
100
AcDbEntity
8
FRAMES
100
AcDbLine
10
-12
20
-8
30
18
11
-12
21
-8
31
30
0
LINE
5
BC5
100
AcDbEntity
8
FRAMES
100
AcDbLine
10
-12
20
-8
30
30
11
-12
21
-8
31
42
0
LINE
5
BC6
100
AcDbEntity
8
FRAMES
100
AcDbLine
10
-12
20
6
30
0
11
-12
21
6
31
18
0
LINE
5
BC7
100
AcDbEntity
8
FRAMES
100
AcDbLine
10
-12
20
6
30
18
11
-12
21
6
31
30
0
LINE
5
BC8
100
AcDbEntity
8
FRAMES
100
AcDbLine
10
-12
20
6
30
30
11
-12
21
6
31
42
0
LINE
5
BC9
100
AcDbEntity
8
FRAMES
100
AcDbLine
10
-12
20
16
30
0
11
-12
21
16
31
18
0
LINE
5
BCA
100
AcDbEntity
8
FRAMES
100
AcDbLine
10
-12
20
16
30
18
11
-12
21
16
31
30
0
LINE
5
BCB
100
AcDbEntity
8
FRAMES
100
AcDbLine
10
-12
20
16
30
30
11
-12
21
16
31
42
0
LINE
5
BCC
100
AcDbEntity
8
FRAMES
100
AcDbLine
10
0
20
-48
30
0
11
0
21
-48
31
18
0
LINE
5
BCD
100
AcDbEntity
8
FRAMES
100
AcDbLine
10
0
20
-48
30
18
11
0
21
-48
31
30
0
LINE
5
BCE
100
AcDbEntity
8
FRAMES
100
AcDbLine
10
0
20
-48
30
30
11
0
21
-48
31
42
0
LINE
5
BCF
100
AcDbEntity
8
FRAMES
100
AcDbLine
10
0
20
-26
30
0
11
0
21
-26
31
18
0
LINE
5
BD0
100
AcDbEntity
8
FRAMES
100
AcDbLine
10
0
20
-26
30
18
11
0
21
-26
31
30
0
LINE
5
BD1
100
AcDbEntity
8
FRAMES
100
AcDbLine
10
0
20
-26
30
30
11
0
21
-26
31
42
0
LINE
5
BD2
100
AcDbEntity
8
FRAMES
100
AcDbLine
10
0
20
-8
30
0
11
0
21
-8
31
18
0
LINE
5
BD3
100
AcDbEntity
8
FRAMES
100
AcDbLine
10
0
20
-8
30
18
11
0
21
-8
31
30
0
LINE
5
BD4
100
AcDbEntity
8
FRAMES
100
AcDbLine
10
0
20
-8
30
30
11
0
21
-8
31
42
0
LINE
5
BD5
100
AcDbEntity
8
FRAMES
100
AcDbLine
10
0
20
6
30
0
11
0
21
6
31
18
0
LINE
5
BD6
100
AcDbEntity
8
FRAMES
100
AcDbLine
10
0
20
6
30
18
11
0
21
6
31
30
0
LINE
5
BD7
100
AcDbEntity
8
FRAMES
100
AcDbLine
10
0
20
6
30
30
11
0
21
6
31
42
0
LINE
5
BD8
100
AcDbEntity
8
FRAMES
100
AcDbLine
10
0
20
16
30
0
11
0
21
16
31
18
0
LINE
5
BD9
100
AcDbEntity
8
FRAMES
100
AcDbLine
10
0
20
16
30
18
11
0
21
16
31
30
0
LINE
5
BDA
100
AcDbEntity
8
FRAMES
100
AcDbLine
10
0
20
16
30
30
11
0
21
16
31
42
0
LINE
5
BDB
100
AcDbEntity
8
FRAMES
100
AcDbLine
10
24
20
-48
30
0
11
24
21
-48
31
18
0
LINE
5
BDC
100
AcDbEntity
8
FRAMES
100
AcDbLine
10
24
20
-48
30
18
11
24
21
-48
31
30
0
LINE
5
BDD
100
AcDbEntity
8
FRAMES
100
AcDbLine
10
24
20
-48
30
30
11
24
21
-48
31
42
0
LINE
5
BDE
100
AcDbEntity
8
FRAMES
100
AcDbLine
10
24
20
-26
30
0
11
24
21
-26
31
18
0
LINE
5
BDF
100
AcDbEntity
8
FRAMES
100
AcDbLine
10
24
20
-26
30
18
11
24
21
-26
31
30
0
LINE
5
BE0
100
AcDbEntity
8
FRAMES
100
AcDbLine
10
24
20
-26
30
30
11
24
21
-26
31
42
0
LINE
5
BE1
100
AcDbEntity
8
FRAMES
100
AcDbLine
10
24
20
-8
30
0
11
24
21
-8
31
18
0
LINE
5
BE2
100
AcDbEntity
8
FRAMES
100
AcDbLine
10
24
20
-8
30
18
11
24
21
-8
31
30
0
LINE
5
BE3
100
AcDbEntity
8
FRAMES
100
AcDbLine
10
24
20
-8
30
30
11
24
21
-8
31
42
0
LINE
5
BE4
100
AcDbEntity
8
FRAMES
100
AcDbLine
10
24
20
6
30
0
11
24
21
6
31
18
0
LINE
5
BE5
100
AcDbEntity
8
FRAMES
100
AcDbLine
10
24
20
6
30
18
11
24
21
6
31
30
0
LINE
5
BE6
100
AcDbEntity
8
FRAMES
100
AcDbLine
10
24
20
6
30
30
11
24
21
6
31
42
0
LINE
5
BE7
100
AcDbEntity
8
FRAMES
100
AcDbLine
10
24
20
16
30
0
11
24
21
16
31
18
0
LINE
5
BE8
100
AcDbEntity
8
FRAMES
100
AcDbLine
10
24
20
16
30
18
11
24
21
16
31
30
0
LINE
5
BE9
100
AcDbEntity
8
FRAMES
100
AcDbLine
10
24
20
16
30
30
11
24
21
16
31
42
0
LINE
5
BEA
100
AcDbEntity
8
FRAMES
100
AcDbLine
10
48
20
-48
30
0
11
48
21
-48
31
18
0
LINE
5
BEB
100
AcDbEntity
8
FRAMES
100
AcDbLine
10
48
20
-48
30
18
11
48
21
-48
31
30
0
LINE
5
BEC
100
AcDbEntity
8
FRAMES
100
AcDbLine
10
48
20
-48
30
30
11
48
21
-48
31
42
0
LINE
5
BED
100
AcDbEntity
8
FRAMES
100
AcDbLine
10
48
20
-26
30
0
11
48
21
-26
31
18
0
LINE
5
BEE
100
AcDbEntity
8
FRAMES
100
AcDbLine
10
48
20
-26
30
18
11
48
21
-26
31
30
0
LINE
5
BEF
100
AcDbEntity
8
FRAMES
100
AcDbLine
10
48
20
-26
30
30
11
48
21
-26
31
42
0
LINE
5
BF0
100
AcDbEntity
8
FRAMES
100
AcDbLine
10
48
20
-8
30
0
11
48
21
-8
31
18
0
LINE
5
BF1
100
AcDbEntity
8
FRAMES
100
AcDbLine
10
48
20
-8
30
18
11
48
21
-8
31
30
0
LINE
5
BF2
100
AcDbEntity
8
FRAMES
100
AcDbLine
10
48
20
-8
30
30
11
48
21
-8
31
42
0
LINE
5
BF3
100
AcDbEntity
8
FRAMES
100
AcDbLine
10
48
20
6
30
0
11
48
21
6
31
18
0
LINE
5
BF4
100
AcDbEntity
8
FRAMES
100
AcDbLine
10
48
20
6
30
18
11
48
21
6
31
30
0
LINE
5
BF5
100
AcDbEntity
8
FRAMES
100
AcDbLine
10
48
20
6
30
30
11
48
21
6
31
42
0
LINE
5
BF6
100
AcDbEntity
8
FRAMES
100
AcDbLine
10
48
20
16
30
0
11
48
21
16
31
18
0
LINE
5
BF7
100
AcDbEntity
8
FRAMES
100
AcDbLine
10
48
20
16
30
18
11
48
21
16
31
30
0
LINE
5
BF8
100
AcDbEntity
8
FRAMES
100
AcDbLine
10
48
20
16
30
30
11
48
21
16
31
42
0
LINE
5
BF9
100
AcDbEntity
8
FRAMES
100
AcDbLine
10
72
20
-48
30
0
11
72
21
-48
31
18
0
LINE
5
BFA
100
AcDbEntity
8
FRAMES
100
AcDbLine
10
72
20
-48
30
18
11
72
21
-48
31
30
0
LINE
5
BFB
100
AcDbEntity
8
FRAMES
100
AcDbLine
10
72
20
-48
30
30
11
72
21
-48
31
42
0
LINE
5
BFC
100
AcDbEntity
8
FRAMES
100
AcDbLine
10
72
20
-26
30
0
11
72
21
-26
31
18
0
LINE
5
BFD
100
AcDbEntity
8
FRAMES
100
AcDbLine
10
72
20
-26
30
18
11
72
21
-26
31
30
0
LINE
5
BFE
100
AcDbEntity
8
FRAMES
100
AcDbLine
10
72
20
-26
30
30
11
72
21
-26
31
42
0
LINE
5
BFF
100
AcDbEntity
8
FRAMES
100
AcDbLine
10
72
20
-8
30
0
11
72
21
-8
31
18
0
LINE
5
B100
100
AcDbEntity
8
FRAMES
100
AcDbLine
10
72
20
-8
30
18
11
72
21
-8
31
30
0
LINE
5
B101
100
AcDbEntity
8
FRAMES
100
AcDbLine
10
72
20
-8
30
30
11
72
21
-8
31
42
0
LINE
5
B102
100
AcDbEntity
8
FRAMES
100
AcDbLine
10
72
20
6
30
0
11
72
21
6
31
18
0
LINE
5
B103
100
AcDbEntity
8
FRAMES
100
AcDbLine
10
72
20
6
30
18
11
72
21
6
31
30
0
LINE
5
B104
100
AcDbEntity
8
FRAMES
100
AcDbLine
10
72
20
6
30
30
11
72
21
6
31
42
0
LINE
5
B105
100
AcDbEntity
8
FRAMES
100
AcDbLine
10
72
20
16
30
0
11
72
21
16
31
18
0
LINE
5
B106
100
AcDbEntity
8
FRAMES
100
AcDbLine
10
72
20
16
30
18
11
72
21
16
31
30
0
LINE
5
B107
100
AcDbEntity
8
FRAMES
100
AcDbLine
10
72
20
16
30
30
11
72
21
16
31
42
0
LINE
5
B108
100
AcDbEntity
8
FRAMES
100
AcDbLine
10
-96
20
-48
30
18
11
-72
21
-48
31
18
0
LINE
5
B109
100
AcDbEntity
8
FRAMES
100
AcDbLine
10
-96
20
-48
30
30
11
-72
21
-48
31
30
0
LINE
5
B10A
100
AcDbEntity
8
FRAMES
100
AcDbLine
10
-96
20
-48
30
42
11
-72
21
-48
31
42
0
LINE
5
B10B
100
AcDbEntity
8
FRAMES
100
AcDbLine
10
-72
20
-48
30
18
11
-48
21
-48
31
18
0
LINE
5
B10C
100
AcDbEntity
8
FRAMES
100
AcDbLine
10
-72
20
-48
30
30
11
-48
21
-48
31
30
0
LINE
5
B10D
100
AcDbEntity
8
FRAMES
100
AcDbLine
10
-72
20
-48
30
42
11
-48
21
-48
31
42
0
LINE
5
B10E
100
AcDbEntity
8
FRAMES
100
AcDbLine
10
-48
20
-48
30
18
11
-24
21
-48
31
18
0
LINE
5
B10F
100
AcDbEntity
8
FRAMES
100
AcDbLine
10
-48
20
-48
30
30
11
-24
21
-48
31
30
0
LINE
5
B110
100
AcDbEntity
8
FRAMES
100
AcDbLine
10
-48
20
-48
30
42
11
-24
21
-48
31
42
0
LINE
5
B111
100
AcDbEntity
8
FRAMES
100
AcDbLine
10
-24
20
-48
30
18
11
-12
21
-48
31
18
0
LINE
5
B112
100
AcDbEntity
8
FRAMES
100
AcDbLine
10
-24
20
-48
30
30
11
-12
21
-48
31
30
0
LINE
5
B113
100
AcDbEntity
8
FRAMES
100
AcDbLine
10
-24
20
-48
30
42
11
-12
21
-48
31
42
0
LINE
5
B114
100
AcDbEntity
8
FRAMES
100
AcDbLine
10
-12
20
-48
30
18
11
0
21
-48
31
18
0
LINE
5
B115
100
AcDbEntity
8
FRAMES
100
AcDbLine
10
-12
20
-48
30
30
11
0
21
-48
31
30
0
LINE
5
B116
100
AcDbEntity
8
FRAMES
100
AcDbLine
10
-12
20
-48
30
42
11
0
21
-48
31
42
0
LINE
5
B117
100
AcDbEntity
8
FRAMES
100
AcDbLine
10
0
20
-48
30
18
11
24
21
-48
31
18
0
LINE
5
B118
100
AcDbEntity
8
FRAMES
100
AcDbLine
10
0
20
-48
30
30
11
24
21
-48
31
30
0
LINE
5
B119
100
AcDbEntity
8
FRAMES
100
AcDbLine
10
0
20
-48
30
42
11
24
21
-48
31
42
0
LINE
5
B11A
100
AcDbEntity
8
FRAMES
100
AcDbLine
10
24
20
-48
30
18
11
48
21
-48
31
18
0
LINE
5
B11B
100
AcDbEntity
8
FRAMES
100
AcDbLine
10
24
20
-48
30
30
11
48
21
-48
31
30
0
LINE
5
B11C
100
AcDbEntity
8
FRAMES
100
AcDbLine
10
24
20
-48
30
42
11
48
21
-48
31
42
0
LINE
5
B11D
100
AcDbEntity
8
FRAMES
100
AcDbLine
10
48
20
-48
30
18
11
72
21
-48
31
18
0
LINE
5
B11E
100
AcDbEntity
8
FRAMES
100
AcDbLine
10
48
20
-48
30
30
11
72
21
-48
31
30
0
LINE
5
B11F
100
AcDbEntity
8
FRAMES
100
AcDbLine
10
48
20
-48
30
42
11
72
21
-48
31
42
0
LINE
5
B120
100
AcDbEntity
8
FRAMES
100
AcDbLine
10
-96
20
-26
30
18
11
-72
21
-26
31
18
0
LINE
5
B121
100
AcDbEntity
8
FRAMES
100
AcDbLine
10
-96
20
-26
30
30
11
-72
21
-26
31
30
0
LINE
5
B122
100
AcDbEntity
8
FRAMES
100
AcDbLine
10
-96
20
-26
30
42
11
-72
21
-26
31
42
0
LINE
5
B123
100
AcDbEntity
8
FRAMES
100
AcDbLine
10
-72
20
-26
30
18
11
-48
21
-26
31
18
0
LINE
5
B124
100
AcDbEntity
8
FRAMES
100
AcDbLine
10
-72
20
-26
30
30
11
-48
21
-26
31
30
0
LINE
5
B125
100
AcDbEntity
8
FRAMES
100
AcDbLine
10
-72
20
-26
30
42
11
-48
21
-26
31
42
0
LINE
5
B126
100
AcDbEntity
8
FRAMES
100
AcDbLine
10
-48
20
-26
30
18
11
-24
21
-26
31
18
0
LINE
5
B127
100
AcDbEntity
8
FRAMES
100
AcDbLine
10
-48
20
-26
30
30
11
-24
21
-26
31
30
0
LINE
5
B128
100
AcDbEntity
8
FRAMES
100
AcDbLine
10
-48
20
-26
30
42
11
-24
21
-26
31
42
0
LINE
5
B129
100
AcDbEntity
8
FRAMES
100
AcDbLine
10
-24
20
-26
30
18
11
-12
21
-26
31
18
0
LINE
5
B12A
100
AcDbEntity
8
FRAMES
100
AcDbLine
10
-24
20
-26
30
30
11
-12
21
-26
31
30
0
LINE
5
B12B
100
AcDbEntity
8
FRAMES
100
AcDbLine
10
-24
20
-26
30
42
11
-12
21
-26
31
42
0
LINE
5
B12C
100
AcDbEntity
8
FRAMES
100
AcDbLine
10
-12
20
-26
30
18
11
0
21
-26
31
18
0
LINE
5
B12D
100
AcDbEntity
8
FRAMES
100
AcDbLine
10
-12
20
-26
30
30
11
0
21
-26
31
30
0
LINE
5
B12E
100
AcDbEntity
8
FRAMES
100
AcDbLine
10
-12
20
-26
30
42
11
0
21
-26
31
42
0
LINE
5
B12F
100
AcDbEntity
8
FRAMES
100
AcDbLine
10
0
20
-26
30
18
11
24
21
-26
31
18
0
LINE
5
B130
100
AcDbEntity
8
FRAMES
100
AcDbLine
10
0
20
-26
30
30
11
24
21
-26
31
30
0
LINE
5
B131
100
AcDbEntity
8
FRAMES
100
AcDbLine
10
0
20
-26
30
42
11
24
21
-26
31
42
0
LINE
5
B132
100
AcDbEntity
8
FRAMES
100
AcDbLine
10
24
20
-26
30
18
11
48
21
-26
31
18
0
LINE
5
B133
100
AcDbEntity
8
FRAMES
100
AcDbLine
10
24
20
-26
30
30
11
48
21
-26
31
30
0
LINE
5
B134
100
AcDbEntity
8
FRAMES
100
AcDbLine
10
24
20
-26
30
42
11
48
21
-26
31
42
0
LINE
5
B135
100
AcDbEntity
8
FRAMES
100
AcDbLine
10
48
20
-26
30
18
11
72
21
-26
31
18
0
LINE
5
B136
100
AcDbEntity
8
FRAMES
100
AcDbLine
10
48
20
-26
30
30
11
72
21
-26
31
30
0
LINE
5
B137
100
AcDbEntity
8
FRAMES
100
AcDbLine
10
48
20
-26
30
42
11
72
21
-26
31
42
0
LINE
5
B138
100
AcDbEntity
8
FRAMES
100
AcDbLine
10
-96
20
-8
30
18
11
-72
21
-8
31
18
0
LINE
5
B139
100
AcDbEntity
8
FRAMES
100
AcDbLine
10
-96
20
-8
30
30
11
-72
21
-8
31
30
0
LINE
5
B13A
100
AcDbEntity
8
FRAMES
100
AcDbLine
10
-96
20
-8
30
42
11
-72
21
-8
31
42
0
LINE
5
B13B
100
AcDbEntity
8
FRAMES
100
AcDbLine
10
-72
20
-8
30
18
11
-48
21
-8
31
18
0
LINE
5
B13C
100
AcDbEntity
8
FRAMES
100
AcDbLine
10
-72
20
-8
30
30
11
-48
21
-8
31
30
0
LINE
5
B13D
100
AcDbEntity
8
FRAMES
100
AcDbLine
10
-72
20
-8
30
42
11
-48
21
-8
31
42
0
LINE
5
B13E
100
AcDbEntity
8
FRAMES
100
AcDbLine
10
-48
20
-8
30
18
11
-24
21
-8
31
18
0
LINE
5
B13F
100
AcDbEntity
8
FRAMES
100
AcDbLine
10
-48
20
-8
30
30
11
-24
21
-8
31
30
0
LINE
5
B140
100
AcDbEntity
8
FRAMES
100
AcDbLine
10
-48
20
-8
30
42
11
-24
21
-8
31
42
0
LINE
5
B141
100
AcDbEntity
8
FRAMES
100
AcDbLine
10
-24
20
-8
30
18
11
-12
21
-8
31
18
0
LINE
5
B142
100
AcDbEntity
8
FRAMES
100
AcDbLine
10
-24
20
-8
30
30
11
-12
21
-8
31
30
0
LINE
5
B143
100
AcDbEntity
8
FRAMES
100
AcDbLine
10
-24
20
-8
30
42
11
-12
21
-8
31
42
0
LINE
5
B144
100
AcDbEntity
8
FRAMES
100
AcDbLine
10
-12
20
-8
30
18
11
0
21
-8
31
18
0
LINE
5
B145
100
AcDbEntity
8
FRAMES
100
AcDbLine
10
-12
20
-8
30
30
11
0
21
-8
31
30
0
LINE
5
B146
100
AcDbEntity
8
FRAMES
100
AcDbLine
10
-12
20
-8
30
42
11
0
21
-8
31
42
0
LINE
5
B147
100
AcDbEntity
8
FRAMES
100
AcDbLine
10
0
20
-8
30
18
11
24
21
-8
31
18
0
LINE
5
B148
100
AcDbEntity
8
FRAMES
100
AcDbLine
10
0
20
-8
30
30
11
24
21
-8
31
30
0
LINE
5
B149
100
AcDbEntity
8
FRAMES
100
AcDbLine
10
0
20
-8
30
42
11
24
21
-8
31
42
0
LINE
5
B14A
100
AcDbEntity
8
FRAMES
100
AcDbLine
10
24
20
-8
30
18
11
48
21
-8
31
18
0
LINE
5
B14B
100
AcDbEntity
8
FRAMES
100
AcDbLine
10
24
20
-8
30
30
11
48
21
-8
31
30
0
LINE
5
B14C
100
AcDbEntity
8
FRAMES
100
AcDbLine
10
24
20
-8
30
42
11
48
21
-8
31
42
0
LINE
5
B14D
100
AcDbEntity
8
FRAMES
100
AcDbLine
10
48
20
-8
30
18
11
72
21
-8
31
18
0
LINE
5
B14E
100
AcDbEntity
8
FRAMES
100
AcDbLine
10
48
20
-8
30
30
11
72
21
-8
31
30
0
LINE
5
B14F
100
AcDbEntity
8
FRAMES
100
AcDbLine
10
48
20
-8
30
42
11
72
21
-8
31
42
0
LINE
5
B150
100
AcDbEntity
8
FRAMES
100
AcDbLine
10
-96
20
6
30
18
11
-72
21
6
31
18
0
LINE
5
B151
100
AcDbEntity
8
FRAMES
100
AcDbLine
10
-96
20
6
30
30
11
-72
21
6
31
30
0
LINE
5
B152
100
AcDbEntity
8
FRAMES
100
AcDbLine
10
-96
20
6
30
42
11
-72
21
6
31
42
0
LINE
5
B153
100
AcDbEntity
8
FRAMES
100
AcDbLine
10
-72
20
6
30
18
11
-48
21
6
31
18
0
LINE
5
B154
100
AcDbEntity
8
FRAMES
100
AcDbLine
10
-72
20
6
30
30
11
-48
21
6
31
30
0
LINE
5
B155
100
AcDbEntity
8
FRAMES
100
AcDbLine
10
-72
20
6
30
42
11
-48
21
6
31
42
0
LINE
5
B156
100
AcDbEntity
8
FRAMES
100
AcDbLine
10
-48
20
6
30
18
11
-24
21
6
31
18
0
LINE
5
B157
100
AcDbEntity
8
FRAMES
100
AcDbLine
10
-48
20
6
30
30
11
-24
21
6
31
30
0
LINE
5
B158
100
AcDbEntity
8
FRAMES
100
AcDbLine
10
-48
20
6
30
42
11
-24
21
6
31
42
0
LINE
5
B159
100
AcDbEntity
8
FRAMES
100
AcDbLine
10
-24
20
6
30
18
11
-12
21
6
31
18
0
LINE
5
B15A
100
AcDbEntity
8
FRAMES
100
AcDbLine
10
-24
20
6
30
30
11
-12
21
6
31
30
0
LINE
5
B15B
100
AcDbEntity
8
FRAMES
100
AcDbLine
10
-24
20
6
30
42
11
-12
21
6
31
42
0
LINE
5
B15C
100
AcDbEntity
8
FRAMES
100
AcDbLine
10
-12
20
6
30
18
11
0
21
6
31
18
0
LINE
5
B15D
100
AcDbEntity
8
FRAMES
100
AcDbLine
10
-12
20
6
30
30
11
0
21
6
31
30
0
LINE
5
B15E
100
AcDbEntity
8
FRAMES
100
AcDbLine
10
-12
20
6
30
42
11
0
21
6
31
42
0
LINE
5
B15F
100
AcDbEntity
8
FRAMES
100
AcDbLine
10
0
20
6
30
18
11
24
21
6
31
18
0
LINE
5
B160
100
AcDbEntity
8
FRAMES
100
AcDbLine
10
0
20
6
30
30
11
24
21
6
31
30
0
LINE
5
B161
100
AcDbEntity
8
FRAMES
100
AcDbLine
10
0
20
6
30
42
11
24
21
6
31
42
0
LINE
5
B162
100
AcDbEntity
8
FRAMES
100
AcDbLine
10
24
20
6
30
18
11
48
21
6
31
18
0
LINE
5
B163
100
AcDbEntity
8
FRAMES
100
AcDbLine
10
24
20
6
30
30
11
48
21
6
31
30
0
LINE
5
B164
100
AcDbEntity
8
FRAMES
100
AcDbLine
10
24
20
6
30
42
11
48
21
6
31
42
0
LINE
5
B165
100
AcDbEntity
8
FRAMES
100
AcDbLine
10
48
20
6
30
18
11
72
21
6
31
18
0
LINE
5
B166
100
AcDbEntity
8
FRAMES
100
AcDbLine
10
48
20
6
30
30
11
72
21
6
31
30
0
LINE
5
B167
100
AcDbEntity
8
FRAMES
100
AcDbLine
10
48
20
6
30
42
11
72
21
6
31
42
0
LINE
5
B168
100
AcDbEntity
8
FRAMES
100
AcDbLine
10
-96
20
16
30
18
11
-72
21
16
31
18
0
LINE
5
B169
100
AcDbEntity
8
FRAMES
100
AcDbLine
10
-96
20
16
30
30
11
-72
21
16
31
30
0
LINE
5
B16A
100
AcDbEntity
8
FRAMES
100
AcDbLine
10
-96
20
16
30
42
11
-72
21
16
31
42
0
LINE
5
B16B
100
AcDbEntity
8
FRAMES
100
AcDbLine
10
-72
20
16
30
18
11
-48
21
16
31
18
0
LINE
5
B16C
100
AcDbEntity
8
FRAMES
100
AcDbLine
10
-72
20
16
30
30
11
-48
21
16
31
30
0
LINE
5
B16D
100
AcDbEntity
8
FRAMES
100
AcDbLine
10
-72
20
16
30
42
11
-48
21
16
31
42
0
LINE
5
B16E
100
AcDbEntity
8
FRAMES
100
AcDbLine
10
-48
20
16
30
18
11
-24
21
16
31
18
0
LINE
5
B16F
100
AcDbEntity
8
FRAMES
100
AcDbLine
10
-48
20
16
30
30
11
-24
21
16
31
30
0
LINE
5
B170
100
AcDbEntity
8
FRAMES
100
AcDbLine
10
-48
20
16
30
42
11
-24
21
16
31
42
0
LINE
5
B171
100
AcDbEntity
8
FRAMES
100
AcDbLine
10
-24
20
16
30
18
11
-12
21
16
31
18
0
LINE
5
B172
100
AcDbEntity
8
FRAMES
100
AcDbLine
10
-24
20
16
30
30
11
-12
21
16
31
30
0
LINE
5
B173
100
AcDbEntity
8
FRAMES
100
AcDbLine
10
-24
20
16
30
42
11
-12
21
16
31
42
0
LINE
5
B174
100
AcDbEntity
8
FRAMES
100
AcDbLine
10
-12
20
16
30
18
11
0
21
16
31
18
0
LINE
5
B175
100
AcDbEntity
8
FRAMES
100
AcDbLine
10
-12
20
16
30
30
11
0
21
16
31
30
0
LINE
5
B176
100
AcDbEntity
8
FRAMES
100
AcDbLine
10
-12
20
16
30
42
11
0
21
16
31
42
0
LINE
5
B177
100
AcDbEntity
8
FRAMES
100
AcDbLine
10
0
20
16
30
18
11
24
21
16
31
18
0
LINE
5
B178
100
AcDbEntity
8
FRAMES
100
AcDbLine
10
0
20
16
30
30
11
24
21
16
31
30
0
LINE
5
B179
100
AcDbEntity
8
FRAMES
100
AcDbLine
10
0
20
16
30
42
11
24
21
16
31
42
0
LINE
5
B17A
100
AcDbEntity
8
FRAMES
100
AcDbLine
10
24
20
16
30
18
11
48
21
16
31
18
0
LINE
5
B17B
100
AcDbEntity
8
FRAMES
100
AcDbLine
10
24
20
16
30
30
11
48
21
16
31
30
0
LINE
5
B17C
100
AcDbEntity
8
FRAMES
100
AcDbLine
10
24
20
16
30
42
11
48
21
16
31
42
0
LINE
5
B17D
100
AcDbEntity
8
FRAMES
100
AcDbLine
10
48
20
16
30
18
11
72
21
16
31
18
0
LINE
5
B17E
100
AcDbEntity
8
FRAMES
100
AcDbLine
10
48
20
16
30
30
11
72
21
16
31
30
0
LINE
5
B17F
100
AcDbEntity
8
FRAMES
100
AcDbLine
10
48
20
16
30
42
11
72
21
16
31
42
0
LINE
5
B180
100
AcDbEntity
8
FRAMES
100
AcDbLine
10
-96
20
-48
30
18
11
-96
21
-26
31
18
0
LINE
5
B181
100
AcDbEntity
8
FRAMES
100
AcDbLine
10
-96
20
-48
30
30
11
-96
21
-26
31
30
0
LINE
5
B182
100
AcDbEntity
8
FRAMES
100
AcDbLine
10
-96
20
-48
30
42
11
-96
21
-26
31
42
0
LINE
5
B183
100
AcDbEntity
8
FRAMES
100
AcDbLine
10
-96
20
-26
30
18
11
-96
21
-8
31
18
0
LINE
5
B184
100
AcDbEntity
8
FRAMES
100
AcDbLine
10
-96
20
-26
30
30
11
-96
21
-8
31
30
0
LINE
5
B185
100
AcDbEntity
8
FRAMES
100
AcDbLine
10
-96
20
-26
30
42
11
-96
21
-8
31
42
0
LINE
5
B186
100
AcDbEntity
8
FRAMES
100
AcDbLine
10
-96
20
-8
30
18
11
-96
21
6
31
18
0
LINE
5
B187
100
AcDbEntity
8
FRAMES
100
AcDbLine
10
-96
20
-8
30
30
11
-96
21
6
31
30
0
LINE
5
B188
100
AcDbEntity
8
FRAMES
100
AcDbLine
10
-96
20
-8
30
42
11
-96
21
6
31
42
0
LINE
5
B189
100
AcDbEntity
8
FRAMES
100
AcDbLine
10
-96
20
6
30
18
11
-96
21
16
31
18
0
LINE
5
B18A
100
AcDbEntity
8
FRAMES
100
AcDbLine
10
-96
20
6
30
30
11
-96
21
16
31
30
0
LINE
5
B18B
100
AcDbEntity
8
FRAMES
100
AcDbLine
10
-96
20
6
30
42
11
-96
21
16
31
42
0
LINE
5
B18C
100
AcDbEntity
8
FRAMES
100
AcDbLine
10
-72
20
-48
30
18
11
-72
21
-26
31
18
0
LINE
5
B18D
100
AcDbEntity
8
FRAMES
100
AcDbLine
10
-72
20
-48
30
30
11
-72
21
-26
31
30
0
LINE
5
B18E
100
AcDbEntity
8
FRAMES
100
AcDbLine
10
-72
20
-48
30
42
11
-72
21
-26
31
42
0
LINE
5
B18F
100
AcDbEntity
8
FRAMES
100
AcDbLine
10
-72
20
-26
30
18
11
-72
21
-8
31
18
0
LINE
5
B190
100
AcDbEntity
8
FRAMES
100
AcDbLine
10
-72
20
-26
30
30
11
-72
21
-8
31
30
0
LINE
5
B191
100
AcDbEntity
8
FRAMES
100
AcDbLine
10
-72
20
-26
30
42
11
-72
21
-8
31
42
0
LINE
5
B192
100
AcDbEntity
8
FRAMES
100
AcDbLine
10
-72
20
-8
30
18
11
-72
21
6
31
18
0
LINE
5
B193
100
AcDbEntity
8
FRAMES
100
AcDbLine
10
-72
20
-8
30
30
11
-72
21
6
31
30
0
LINE
5
B194
100
AcDbEntity
8
FRAMES
100
AcDbLine
10
-72
20
-8
30
42
11
-72
21
6
31
42
0
LINE
5
B195
100
AcDbEntity
8
FRAMES
100
AcDbLine
10
-72
20
6
30
18
11
-72
21
16
31
18
0
LINE
5
B196
100
AcDbEntity
8
FRAMES
100
AcDbLine
10
-72
20
6
30
30
11
-72
21
16
31
30
0
LINE
5
B197
100
AcDbEntity
8
FRAMES
100
AcDbLine
10
-72
20
6
30
42
11
-72
21
16
31
42
0
LINE
5
B198
100
AcDbEntity
8
FRAMES
100
AcDbLine
10
-48
20
-48
30
18
11
-48
21
-26
31
18
0
LINE
5
B199
100
AcDbEntity
8
FRAMES
100
AcDbLine
10
-48
20
-48
30
30
11
-48
21
-26
31
30
0
LINE
5
B19A
100
AcDbEntity
8
FRAMES
100
AcDbLine
10
-48
20
-48
30
42
11
-48
21
-26
31
42
0
LINE
5
B19B
100
AcDbEntity
8
FRAMES
100
AcDbLine
10
-48
20
-26
30
18
11
-48
21
-8
31
18
0
LINE
5
B19C
100
AcDbEntity
8
FRAMES
100
AcDbLine
10
-48
20
-26
30
30
11
-48
21
-8
31
30
0
LINE
5
B19D
100
AcDbEntity
8
FRAMES
100
AcDbLine
10
-48
20
-26
30
42
11
-48
21
-8
31
42
0
LINE
5
B19E
100
AcDbEntity
8
FRAMES
100
AcDbLine
10
-48
20
-8
30
18
11
-48
21
6
31
18
0
LINE
5
B19F
100
AcDbEntity
8
FRAMES
100
AcDbLine
10
-48
20
-8
30
30
11
-48
21
6
31
30
0
LINE
5
B1A0
100
AcDbEntity
8
FRAMES
100
AcDbLine
10
-48
20
-8
30
42
11
-48
21
6
31
42
0
LINE
5
B1A1
100
AcDbEntity
8
FRAMES
100
AcDbLine
10
-48
20
6
30
18
11
-48
21
16
31
18
0
LINE
5
B1A2
100
AcDbEntity
8
FRAMES
100
AcDbLine
10
-48
20
6
30
30
11
-48
21
16
31
30
0
LINE
5
B1A3
100
AcDbEntity
8
FRAMES
100
AcDbLine
10
-48
20
6
30
42
11
-48
21
16
31
42
0
LINE
5
B1A4
100
AcDbEntity
8
FRAMES
100
AcDbLine
10
-24
20
-48
30
18
11
-24
21
-26
31
18
0
LINE
5
B1A5
100
AcDbEntity
8
FRAMES
100
AcDbLine
10
-24
20
-48
30
30
11
-24
21
-26
31
30
0
LINE
5
B1A6
100
AcDbEntity
8
FRAMES
100
AcDbLine
10
-24
20
-48
30
42
11
-24
21
-26
31
42
0
LINE
5
B1A7
100
AcDbEntity
8
FRAMES
100
AcDbLine
10
-24
20
-26
30
18
11
-24
21
-8
31
18
0
LINE
5
B1A8
100
AcDbEntity
8
FRAMES
100
AcDbLine
10
-24
20
-26
30
30
11
-24
21
-8
31
30
0
LINE
5
B1A9
100
AcDbEntity
8
FRAMES
100
AcDbLine
10
-24
20
-26
30
42
11
-24
21
-8
31
42
0
LINE
5
B1AA
100
AcDbEntity
8
FRAMES
100
AcDbLine
10
-24
20
-8
30
18
11
-24
21
6
31
18
0
LINE
5
B1AB
100
AcDbEntity
8
FRAMES
100
AcDbLine
10
-24
20
-8
30
30
11
-24
21
6
31
30
0
LINE
5
B1AC
100
AcDbEntity
8
FRAMES
100
AcDbLine
10
-24
20
-8
30
42
11
-24
21
6
31
42
0
LINE
5
B1AD
100
AcDbEntity
8
FRAMES
100
AcDbLine
10
-24
20
6
30
18
11
-24
21
16
31
18
0
LINE
5
B1AE
100
AcDbEntity
8
FRAMES
100
AcDbLine
10
-24
20
6
30
30
11
-24
21
16
31
30
0
LINE
5
B1AF
100
AcDbEntity
8
FRAMES
100
AcDbLine
10
-24
20
6
30
42
11
-24
21
16
31
42
0
LINE
5
B1B0
100
AcDbEntity
8
FRAMES
100
AcDbLine
10
-12
20
-48
30
18
11
-12
21
-26
31
18
0
LINE
5
B1B1
100
AcDbEntity
8
FRAMES
100
AcDbLine
10
-12
20
-48
30
30
11
-12
21
-26
31
30
0
LINE
5
B1B2
100
AcDbEntity
8
FRAMES
100
AcDbLine
10
-12
20
-48
30
42
11
-12
21
-26
31
42
0
LINE
5
B1B3
100
AcDbEntity
8
FRAMES
100
AcDbLine
10
-12
20
-26
30
18
11
-12
21
-8
31
18
0
LINE
5
B1B4
100
AcDbEntity
8
FRAMES
100
AcDbLine
10
-12
20
-26
30
30
11
-12
21
-8
31
30
0
LINE
5
B1B5
100
AcDbEntity
8
FRAMES
100
AcDbLine
10
-12
20
-26
30
42
11
-12
21
-8
31
42
0
LINE
5
B1B6
100
AcDbEntity
8
FRAMES
100
AcDbLine
10
-12
20
-8
30
18
11
-12
21
6
31
18
0
LINE
5
B1B7
100
AcDbEntity
8
FRAMES
100
AcDbLine
10
-12
20
-8
30
30
11
-12
21
6
31
30
0
LINE
5
B1B8
100
AcDbEntity
8
FRAMES
100
AcDbLine
10
-12
20
-8
30
42
11
-12
21
6
31
42
0
LINE
5
B1B9
100
AcDbEntity
8
FRAMES
100
AcDbLine
10
-12
20
6
30
18
11
-12
21
16
31
18
0
LINE
5
B1BA
100
AcDbEntity
8
FRAMES
100
AcDbLine
10
-12
20
6
30
30
11
-12
21
16
31
30
0
LINE
5
B1BB
100
AcDbEntity
8
FRAMES
100
AcDbLine
10
-12
20
6
30
42
11
-12
21
16
31
42
0
LINE
5
B1BC
100
AcDbEntity
8
FRAMES
100
AcDbLine
10
0
20
-48
30
18
11
0
21
-26
31
18
0
LINE
5
B1BD
100
AcDbEntity
8
FRAMES
100
AcDbLine
10
0
20
-48
30
30
11
0
21
-26
31
30
0
LINE
5
B1BE
100
AcDbEntity
8
FRAMES
100
AcDbLine
10
0
20
-48
30
42
11
0
21
-26
31
42
0
LINE
5
B1BF
100
AcDbEntity
8
FRAMES
100
AcDbLine
10
0
20
-26
30
18
11
0
21
-8
31
18
0
LINE
5
B1C0
100
AcDbEntity
8
FRAMES
100
AcDbLine
10
0
20
-26
30
30
11
0
21
-8
31
30
0
LINE
5
B1C1
100
AcDbEntity
8
FRAMES
100
AcDbLine
10
0
20
-26
30
42
11
0
21
-8
31
42
0
LINE
5
B1C2
100
AcDbEntity
8
FRAMES
100
AcDbLine
10
0
20
-8
30
18
11
0
21
6
31
18
0
LINE
5
B1C3
100
AcDbEntity
8
FRAMES
100
AcDbLine
10
0
20
-8
30
30
11
0
21
6
31
30
0
LINE
5
B1C4
100
AcDbEntity
8
FRAMES
100
AcDbLine
10
0
20
-8
30
42
11
0
21
6
31
42
0
LINE
5
B1C5
100
AcDbEntity
8
FRAMES
100
AcDbLine
10
0
20
6
30
18
11
0
21
16
31
18
0
LINE
5
B1C6
100
AcDbEntity
8
FRAMES
100
AcDbLine
10
0
20
6
30
30
11
0
21
16
31
30
0
LINE
5
B1C7
100
AcDbEntity
8
FRAMES
100
AcDbLine
10
0
20
6
30
42
11
0
21
16
31
42
0
LINE
5
B1C8
100
AcDbEntity
8
FRAMES
100
AcDbLine
10
24
20
-48
30
18
11
24
21
-26
31
18
0
LINE
5
B1C9
100
AcDbEntity
8
FRAMES
100
AcDbLine
10
24
20
-48
30
30
11
24
21
-26
31
30
0
LINE
5
B1CA
100
AcDbEntity
8
FRAMES
100
AcDbLine
10
24
20
-48
30
42
11
24
21
-26
31
42
0
LINE
5
B1CB
100
AcDbEntity
8
FRAMES
100
AcDbLine
10
24
20
-26
30
18
11
24
21
-8
31
18
0
LINE
5
B1CC
100
AcDbEntity
8
FRAMES
100
AcDbLine
10
24
20
-26
30
30
11
24
21
-8
31
30
0
LINE
5
B1CD
100
AcDbEntity
8
FRAMES
100
AcDbLine
10
24
20
-26
30
42
11
24
21
-8
31
42
0
LINE
5
B1CE
100
AcDbEntity
8
FRAMES
100
AcDbLine
10
24
20
-8
30
18
11
24
21
6
31
18
0
LINE
5
B1CF
100
AcDbEntity
8
FRAMES
100
AcDbLine
10
24
20
-8
30
30
11
24
21
6
31
30
0
LINE
5
B1D0
100
AcDbEntity
8
FRAMES
100
AcDbLine
10
24
20
-8
30
42
11
24
21
6
31
42
0
LINE
5
B1D1
100
AcDbEntity
8
FRAMES
100
AcDbLine
10
24
20
6
30
18
11
24
21
16
31
18
0
LINE
5
B1D2
100
AcDbEntity
8
FRAMES
100
AcDbLine
10
24
20
6
30
30
11
24
21
16
31
30
0
LINE
5
B1D3
100
AcDbEntity
8
FRAMES
100
AcDbLine
10
24
20
6
30
42
11
24
21
16
31
42
0
LINE
5
B1D4
100
AcDbEntity
8
FRAMES
100
AcDbLine
10
48
20
-48
30
18
11
48
21
-26
31
18
0
LINE
5
B1D5
100
AcDbEntity
8
FRAMES
100
AcDbLine
10
48
20
-48
30
30
11
48
21
-26
31
30
0
LINE
5
B1D6
100
AcDbEntity
8
FRAMES
100
AcDbLine
10
48
20
-48
30
42
11
48
21
-26
31
42
0
LINE
5
B1D7
100
AcDbEntity
8
FRAMES
100
AcDbLine
10
48
20
-26
30
18
11
48
21
-8
31
18
0
LINE
5
B1D8
100
AcDbEntity
8
FRAMES
100
AcDbLine
10
48
20
-26
30
30
11
48
21
-8
31
30
0
LINE
5
B1D9
100
AcDbEntity
8
FRAMES
100
AcDbLine
10
48
20
-26
30
42
11
48
21
-8
31
42
0
LINE
5
B1DA
100
AcDbEntity
8
FRAMES
100
AcDbLine
10
48
20
-8
30
18
11
48
21
6
31
18
0
LINE
5
B1DB
100
AcDbEntity
8
FRAMES
100
AcDbLine
10
48
20
-8
30
30
11
48
21
6
31
30
0
LINE
5
B1DC
100
AcDbEntity
8
FRAMES
100
AcDbLine
10
48
20
-8
30
42
11
48
21
6
31
42
0
LINE
5
B1DD
100
AcDbEntity
8
FRAMES
100
AcDbLine
10
48
20
6
30
18
11
48
21
16
31
18
0
LINE
5
B1DE
100
AcDbEntity
8
FRAMES
100
AcDbLine
10
48
20
6
30
30
11
48
21
16
31
30
0
LINE
5
B1DF
100
AcDbEntity
8
FRAMES
100
AcDbLine
10
48
20
6
30
42
11
48
21
16
31
42
0
LINE
5
B1E0
100
AcDbEntity
8
FRAMES
100
AcDbLine
10
72
20
-48
30
18
11
72
21
-26
31
18
0
LINE
5
B1E1
100
AcDbEntity
8
FRAMES
100
AcDbLine
10
72
20
-48
30
30
11
72
21
-26
31
30
0
LINE
5
B1E2
100
AcDbEntity
8
FRAMES
100
AcDbLine
10
72
20
-48
30
42
11
72
21
-26
31
42
0
LINE
5
B1E3
100
AcDbEntity
8
FRAMES
100
AcDbLine
10
72
20
-26
30
18
11
72
21
-8
31
18
0
LINE
5
B1E4
100
AcDbEntity
8
FRAMES
100
AcDbLine
10
72
20
-26
30
30
11
72
21
-8
31
30
0
LINE
5
B1E5
100
AcDbEntity
8
FRAMES
100
AcDbLine
10
72
20
-26
30
42
11
72
21
-8
31
42
0
LINE
5
B1E6
100
AcDbEntity
8
FRAMES
100
AcDbLine
10
72
20
-8
30
18
11
72
21
6
31
18
0
LINE
5
B1E7
100
AcDbEntity
8
FRAMES
100
AcDbLine
10
72
20
-8
30
30
11
72
21
6
31
30
0
LINE
5
B1E8
100
AcDbEntity
8
FRAMES
100
AcDbLine
10
72
20
-8
30
42
11
72
21
6
31
42
0
LINE
5
B1E9
100
AcDbEntity
8
FRAMES
100
AcDbLine
10
72
20
6
30
18
11
72
21
16
31
18
0
LINE
5
B1EA
100
AcDbEntity
8
FRAMES
100
AcDbLine
10
72
20
6
30
30
11
72
21
16
31
30
0
LINE
5
B1EB
100
AcDbEntity
8
FRAMES
100
AcDbLine
10
72
20
6
30
42
11
72
21
16
31
42
0
POINT
5
B1EC
100
AcDbEntity
8
JOINTS
100
AcDbPoint
10
-96
20
-48
30
0
0
POINT
5
B1ED
100
AcDbEntity
8
JOINTS
100
AcDbPoint
10
-96
20
-48
30
18
0
POINT
5
B1EE
100
AcDbEntity
8
JOINTS
100
AcDbPoint
10
-96
20
-48
30
30
0
POINT
5
B1EF
100
AcDbEntity
8
JOINTS
100
AcDbPoint
10
-96
20
-48
30
42
0
POINT
5
B1F0
100
AcDbEntity
8
JOINTS
100
AcDbPoint
10
-96
20
-26
30
0
0
POINT
5
B1F1
100
AcDbEntity
8
JOINTS
100
AcDbPoint
10
-96
20
-26
30
18
0
POINT
5
B1F2
100
AcDbEntity
8
JOINTS
100
AcDbPoint
10
-96
20
-26
30
30
0
POINT
5
B1F3
100
AcDbEntity
8
JOINTS
100
AcDbPoint
10
-96
20
-26
30
42
0
POINT
5
B1F4
100
AcDbEntity
8
JOINTS
100
AcDbPoint
10
-96
20
-8
30
0
0
POINT
5
B1F5
100
AcDbEntity
8
JOINTS
100
AcDbPoint
10
-96
20
-8
30
18
0
POINT
5
B1F6
100
AcDbEntity
8
JOINTS
100
AcDbPoint
10
-96
20
-8
30
30
0
POINT
5
B1F7
100
AcDbEntity
8
JOINTS
100
AcDbPoint
10
-96
20
-8
30
42
0
POINT
5
B1F8
100
AcDbEntity
8
JOINTS
100
AcDbPoint
10
-96
20
6
30
0
0
POINT
5
B1F9
100
AcDbEntity
8
JOINTS
100
AcDbPoint
10
-96
20
6
30
18
0
POINT
5
B1FA
100
AcDbEntity
8
JOINTS
100
AcDbPoint
10
-96
20
6
30
30
0
POINT
5
B1FB
100
AcDbEntity
8
JOINTS
100
AcDbPoint
10
-96
20
6
30
42
0
POINT
5
B1FC
100
AcDbEntity
8
JOINTS
100
AcDbPoint
10
-96
20
16
30
0
0
POINT
5
B1FD
100
AcDbEntity
8
JOINTS
100
AcDbPoint
10
-96
20
16
30
18
0
POINT
5
B1FE
100
AcDbEntity
8
JOINTS
100
AcDbPoint
10
-96
20
16
30
30
0
POINT
5
B1FF
100
AcDbEntity
8
JOINTS
100
AcDbPoint
10
-96
20
16
30
42
0
POINT
5
B200
100
AcDbEntity
8
JOINTS
100
AcDbPoint
10
-72
20
-48
30
0
0
POINT
5
B201
100
AcDbEntity
8
JOINTS
100
AcDbPoint
10
-72
20
-48
30
18
0
POINT
5
B202
100
AcDbEntity
8
JOINTS
100
AcDbPoint
10
-72
20
-48
30
30
0
POINT
5
B203
100
AcDbEntity
8
JOINTS
100
AcDbPoint
10
-72
20
-48
30
42
0
POINT
5
B204
100
AcDbEntity
8
JOINTS
100
AcDbPoint
10
-72
20
-26
30
0
0
POINT
5
B205
100
AcDbEntity
8
JOINTS
100
AcDbPoint
10
-72
20
-26
30
18
0
POINT
5
B206
100
AcDbEntity
8
JOINTS
100
AcDbPoint
10
-72
20
-26
30
30
0
POINT
5
B207
100
AcDbEntity
8
JOINTS
100
AcDbPoint
10
-72
20
-26
30
42
0
POINT
5
B208
100
AcDbEntity
8
JOINTS
100
AcDbPoint
10
-72
20
-8
30
0
0
POINT
5
B209
100
AcDbEntity
8
JOINTS
100
AcDbPoint
10
-72
20
-8
30
18
0
POINT
5
B20A
100
AcDbEntity
8
JOINTS
100
AcDbPoint
10
-72
20
-8
30
30
0
POINT
5
B20B
100
AcDbEntity
8
JOINTS
100
AcDbPoint
10
-72
20
-8
30
42
0
POINT
5
B20C
100
AcDbEntity
8
JOINTS
100
AcDbPoint
10
-72
20
6
30
0
0
POINT
5
B20D
100
AcDbEntity
8
JOINTS
100
AcDbPoint
10
-72
20
6
30
18
0
POINT
5
B20E
100
AcDbEntity
8
JOINTS
100
AcDbPoint
10
-72
20
6
30
30
0
POINT
5
B20F
100
AcDbEntity
8
JOINTS
100
AcDbPoint
10
-72
20
6
30
42
0
POINT
5
B210
100
AcDbEntity
8
JOINTS
100
AcDbPoint
10
-72
20
16
30
0
0
POINT
5
B211
100
AcDbEntity
8
JOINTS
100
AcDbPoint
10
-72
20
16
30
18
0
POINT
5
B212
100
AcDbEntity
8
JOINTS
100
AcDbPoint
10
-72
20
16
30
30
0
POINT
5
B213
100
AcDbEntity
8
JOINTS
100
AcDbPoint
10
-72
20
16
30
42
0
POINT
5
B214
100
AcDbEntity
8
JOINTS
100
AcDbPoint
10
-48
20
-48
30
0
0
POINT
5
B215
100
AcDbEntity
8
JOINTS
100
AcDbPoint
10
-48
20
-48
30
18
0
POINT
5
B216
100
AcDbEntity
8
JOINTS
100
AcDbPoint
10
-48
20
-48
30
30
0
POINT
5
B217
100
AcDbEntity
8
JOINTS
100
AcDbPoint
10
-48
20
-48
30
42
0
POINT
5
B218
100
AcDbEntity
8
JOINTS
100
AcDbPoint
10
-48
20
-26
30
0
0
POINT
5
B219
100
AcDbEntity
8
JOINTS
100
AcDbPoint
10
-48
20
-26
30
18
0
POINT
5
B21A
100
AcDbEntity
8
JOINTS
100
AcDbPoint
10
-48
20
-26
30
30
0
POINT
5
B21B
100
AcDbEntity
8
JOINTS
100
AcDbPoint
10
-48
20
-26
30
42
0
POINT
5
B21C
100
AcDbEntity
8
JOINTS
100
AcDbPoint
10
-48
20
-8
30
0
0
POINT
5
B21D
100
AcDbEntity
8
JOINTS
100
AcDbPoint
10
-48
20
-8
30
18
0
POINT
5
B21E
100
AcDbEntity
8
JOINTS
100
AcDbPoint
10
-48
20
-8
30
30
0
POINT
5
B21F
100
AcDbEntity
8
JOINTS
100
AcDbPoint
10
-48
20
-8
30
42
0
POINT
5
B220
100
AcDbEntity
8
JOINTS
100
AcDbPoint
10
-48
20
6
30
0
0
POINT
5
B221
100
AcDbEntity
8
JOINTS
100
AcDbPoint
10
-48
20
6
30
18
0
POINT
5
B222
100
AcDbEntity
8
JOINTS
100
AcDbPoint
10
-48
20
6
30
30
0
POINT
5
B223
100
AcDbEntity
8
JOINTS
100
AcDbPoint
10
-48
20
6
30
42
0
POINT
5
B224
100
AcDbEntity
8
JOINTS
100
AcDbPoint
10
-48
20
16
30
0
0
POINT
5
B225
100
AcDbEntity
8
JOINTS
100
AcDbPoint
10
-48
20
16
30
18
0
POINT
5
B226
100
AcDbEntity
8
JOINTS
100
AcDbPoint
10
-48
20
16
30
30
0
POINT
5
B227
100
AcDbEntity
8
JOINTS
100
AcDbPoint
10
-48
20
16
30
42
0
POINT
5
B228
100
AcDbEntity
8
JOINTS
100
AcDbPoint
10
-24
20
-48
30
0
0
POINT
5
B229
100
AcDbEntity
8
JOINTS
100
AcDbPoint
10
-24
20
-48
30
18
0
POINT
5
B22A
100
AcDbEntity
8
JOINTS
100
AcDbPoint
10
-24
20
-48
30
30
0
POINT
5
B22B
100
AcDbEntity
8
JOINTS
100
AcDbPoint
10
-24
20
-48
30
42
0
POINT
5
B22C
100
AcDbEntity
8
JOINTS
100
AcDbPoint
10
-24
20
-26
30
0
0
POINT
5
B22D
100
AcDbEntity
8
JOINTS
100
AcDbPoint
10
-24
20
-26
30
18
0
POINT
5
B22E
100
AcDbEntity
8
JOINTS
100
AcDbPoint
10
-24
20
-26
30
30
0
POINT
5
B22F
100
AcDbEntity
8
JOINTS
100
AcDbPoint
10
-24
20
-26
30
42
0
POINT
5
B230
100
AcDbEntity
8
JOINTS
100
AcDbPoint
10
-24
20
-8
30
0
0
POINT
5
B231
100
AcDbEntity
8
JOINTS
100
AcDbPoint
10
-24
20
-8
30
18
0
POINT
5
B232
100
AcDbEntity
8
JOINTS
100
AcDbPoint
10
-24
20
-8
30
30
0
POINT
5
B233
100
AcDbEntity
8
JOINTS
100
AcDbPoint
10
-24
20
-8
30
42
0
POINT
5
B234
100
AcDbEntity
8
JOINTS
100
AcDbPoint
10
-24
20
6
30
0
0
POINT
5
B235
100
AcDbEntity
8
JOINTS
100
AcDbPoint
10
-24
20
6
30
18
0
POINT
5
B236
100
AcDbEntity
8
JOINTS
100
AcDbPoint
10
-24
20
6
30
30
0
POINT
5
B237
100
AcDbEntity
8
JOINTS
100
AcDbPoint
10
-24
20
6
30
42
0
POINT
5
B238
100
AcDbEntity
8
JOINTS
100
AcDbPoint
10
-24
20
16
30
0
0
POINT
5
B239
100
AcDbEntity
8
JOINTS
100
AcDbPoint
10
-24
20
16
30
18
0
POINT
5
B23A
100
AcDbEntity
8
JOINTS
100
AcDbPoint
10
-24
20
16
30
30
0
POINT
5
B23B
100
AcDbEntity
8
JOINTS
100
AcDbPoint
10
-24
20
16
30
42
0
POINT
5
B23C
100
AcDbEntity
8
JOINTS
100
AcDbPoint
10
-12
20
-48
30
0
0
POINT
5
B23D
100
AcDbEntity
8
JOINTS
100
AcDbPoint
10
-12
20
-48
30
18
0
POINT
5
B23E
100
AcDbEntity
8
JOINTS
100
AcDbPoint
10
-12
20
-48
30
30
0
POINT
5
B23F
100
AcDbEntity
8
JOINTS
100
AcDbPoint
10
-12
20
-48
30
42
0
POINT
5
B240
100
AcDbEntity
8
JOINTS
100
AcDbPoint
10
-12
20
-26
30
0
0
POINT
5
B241
100
AcDbEntity
8
JOINTS
100
AcDbPoint
10
-12
20
-26
30
18
0
POINT
5
B242
100
AcDbEntity
8
JOINTS
100
AcDbPoint
10
-12
20
-26
30
30
0
POINT
5
B243
100
AcDbEntity
8
JOINTS
100
AcDbPoint
10
-12
20
-26
30
42
0
POINT
5
B244
100
AcDbEntity
8
JOINTS
100
AcDbPoint
10
-12
20
-8
30
0
0
POINT
5
B245
100
AcDbEntity
8
JOINTS
100
AcDbPoint
10
-12
20
-8
30
18
0
POINT
5
B246
100
AcDbEntity
8
JOINTS
100
AcDbPoint
10
-12
20
-8
30
30
0
POINT
5
B247
100
AcDbEntity
8
JOINTS
100
AcDbPoint
10
-12
20
-8
30
42
0
POINT
5
B248
100
AcDbEntity
8
JOINTS
100
AcDbPoint
10
-12
20
6
30
0
0
POINT
5
B249
100
AcDbEntity
8
JOINTS
100
AcDbPoint
10
-12
20
6
30
18
0
POINT
5
B24A
100
AcDbEntity
8
JOINTS
100
AcDbPoint
10
-12
20
6
30
30
0
POINT
5
B24B
100
AcDbEntity
8
JOINTS
100
AcDbPoint
10
-12
20
6
30
42
0
POINT
5
B24C
100
AcDbEntity
8
JOINTS
100
AcDbPoint
10
-12
20
16
30
0
0
POINT
5
B24D
100
AcDbEntity
8
JOINTS
100
AcDbPoint
10
-12
20
16
30
18
0
POINT
5
B24E
100
AcDbEntity
8
JOINTS
100
AcDbPoint
10
-12
20
16
30
30
0
POINT
5
B24F
100
AcDbEntity
8
JOINTS
100
AcDbPoint
10
-12
20
16
30
42
0
POINT
5
B250
100
AcDbEntity
8
JOINTS
100
AcDbPoint
10
0
20
-48
30
0
0
POINT
5
B251
100
AcDbEntity
8
JOINTS
100
AcDbPoint
10
0
20
-48
30
18
0
POINT
5
B252
100
AcDbEntity
8
JOINTS
100
AcDbPoint
10
0
20
-48
30
30
0
POINT
5
B253
100
AcDbEntity
8
JOINTS
100
AcDbPoint
10
0
20
-48
30
42
0
POINT
5
B254
100
AcDbEntity
8
JOINTS
100
AcDbPoint
10
0
20
-26
30
0
0
POINT
5
B255
100
AcDbEntity
8
JOINTS
100
AcDbPoint
10
0
20
-26
30
18
0
POINT
5
B256
100
AcDbEntity
8
JOINTS
100
AcDbPoint
10
0
20
-26
30
30
0
POINT
5
B257
100
AcDbEntity
8
JOINTS
100
AcDbPoint
10
0
20
-26
30
42
0
POINT
5
B258
100
AcDbEntity
8
JOINTS
100
AcDbPoint
10
0
20
-8
30
0
0
POINT
5
B259
100
AcDbEntity
8
JOINTS
100
AcDbPoint
10
0
20
-8
30
18
0
POINT
5
B25A
100
AcDbEntity
8
JOINTS
100
AcDbPoint
10
0
20
-8
30
30
0
POINT
5
B25B
100
AcDbEntity
8
JOINTS
100
AcDbPoint
10
0
20
-8
30
42
0
POINT
5
B25C
100
AcDbEntity
8
JOINTS
100
AcDbPoint
10
0
20
6
30
0
0
POINT
5
B25D
100
AcDbEntity
8
JOINTS
100
AcDbPoint
10
0
20
6
30
18
0
POINT
5
B25E
100
AcDbEntity
8
JOINTS
100
AcDbPoint
10
0
20
6
30
30
0
POINT
5
B25F
100
AcDbEntity
8
JOINTS
100
AcDbPoint
10
0
20
6
30
42
0
POINT
5
B260
100
AcDbEntity
8
JOINTS
100
AcDbPoint
10
0
20
16
30
0
0
POINT
5
B261
100
AcDbEntity
8
JOINTS
100
AcDbPoint
10
0
20
16
30
18
0
POINT
5
B262
100
AcDbEntity
8
JOINTS
100
AcDbPoint
10
0
20
16
30
30
0
POINT
5
B263
100
AcDbEntity
8
JOINTS
100
AcDbPoint
10
0
20
16
30
42
0
POINT
5
B264
100
AcDbEntity
8
JOINTS
100
AcDbPoint
10
24
20
-48
30
0
0
POINT
5
B265
100
AcDbEntity
8
JOINTS
100
AcDbPoint
10
24
20
-48
30
18
0
POINT
5
B266
100
AcDbEntity
8
JOINTS
100
AcDbPoint
10
24
20
-48
30
30
0
POINT
5
B267
100
AcDbEntity
8
JOINTS
100
AcDbPoint
10
24
20
-48
30
42
0
POINT
5
B268
100
AcDbEntity
8
JOINTS
100
AcDbPoint
10
24
20
-26
30
0
0
POINT
5
B269
100
AcDbEntity
8
JOINTS
100
AcDbPoint
10
24
20
-26
30
18
0
POINT
5
B26A
100
AcDbEntity
8
JOINTS
100
AcDbPoint
10
24
20
-26
30
30
0
POINT
5
B26B
100
AcDbEntity
8
JOINTS
100
AcDbPoint
10
24
20
-26
30
42
0
POINT
5
B26C
100
AcDbEntity
8
JOINTS
100
AcDbPoint
10
24
20
-8
30
0
0
POINT
5
B26D
100
AcDbEntity
8
JOINTS
100
AcDbPoint
10
24
20
-8
30
18
0
POINT
5
B26E
100
AcDbEntity
8
JOINTS
100
AcDbPoint
10
24
20
-8
30
30
0
POINT
5
B26F
100
AcDbEntity
8
JOINTS
100
AcDbPoint
10
24
20
-8
30
42
0
POINT
5
B270
100
AcDbEntity
8
JOINTS
100
AcDbPoint
10
24
20
6
30
0
0
POINT
5
B271
100
AcDbEntity
8
JOINTS
100
AcDbPoint
10
24
20
6
30
18
0
POINT
5
B272
100
AcDbEntity
8
JOINTS
100
AcDbPoint
10
24
20
6
30
30
0
POINT
5
B273
100
AcDbEntity
8
JOINTS
100
AcDbPoint
10
24
20
6
30
42
0
POINT
5
B274
100
AcDbEntity
8
JOINTS
100
AcDbPoint
10
24
20
16
30
0
0
POINT
5
B275
100
AcDbEntity
8
JOINTS
100
AcDbPoint
10
24
20
16
30
18
0
POINT
5
B276
100
AcDbEntity
8
JOINTS
100
AcDbPoint
10
24
20
16
30
30
0
POINT
5
B277
100
AcDbEntity
8
JOINTS
100
AcDbPoint
10
24
20
16
30
42
0
POINT
5
B278
100
AcDbEntity
8
JOINTS
100
AcDbPoint
10
48
20
-48
30
0
0
POINT
5
B279
100
AcDbEntity
8
JOINTS
100
AcDbPoint
10
48
20
-48
30
18
0
POINT
5
B27A
100
AcDbEntity
8
JOINTS
100
AcDbPoint
10
48
20
-48
30
30
0
POINT
5
B27B
100
AcDbEntity
8
JOINTS
100
AcDbPoint
10
48
20
-48
30
42
0
POINT
5
B27C
100
AcDbEntity
8
JOINTS
100
AcDbPoint
10
48
20
-26
30
0
0
POINT
5
B27D
100
AcDbEntity
8
JOINTS
100
AcDbPoint
10
48
20
-26
30
18
0
POINT
5
B27E
100
AcDbEntity
8
JOINTS
100
AcDbPoint
10
48
20
-26
30
30
0
POINT
5
B27F
100
AcDbEntity
8
JOINTS
100
AcDbPoint
10
48
20
-26
30
42
0
POINT
5
B280
100
AcDbEntity
8
JOINTS
100
AcDbPoint
10
48
20
-8
30
0
0
POINT
5
B281
100
AcDbEntity
8
JOINTS
100
AcDbPoint
10
48
20
-8
30
18
0
POINT
5
B282
100
AcDbEntity
8
JOINTS
100
AcDbPoint
10
48
20
-8
30
30
0
POINT
5
B283
100
AcDbEntity
8
JOINTS
100
AcDbPoint
10
48
20
-8
30
42
0
POINT
5
B284
100
AcDbEntity
8
JOINTS
100
AcDbPoint
10
48
20
6
30
0
0
POINT
5
B285
100
AcDbEntity
8
JOINTS
100
AcDbPoint
10
48
20
6
30
18
0
POINT
5
B286
100
AcDbEntity
8
JOINTS
100
AcDbPoint
10
48
20
6
30
30
0
POINT
5
B287
100
AcDbEntity
8
JOINTS
100
AcDbPoint
10
48
20
6
30
42
0
POINT
5
B288
100
AcDbEntity
8
JOINTS
100
AcDbPoint
10
48
20
16
30
0
0
POINT
5
B289
100
AcDbEntity
8
JOINTS
100
AcDbPoint
10
48
20
16
30
18
0
POINT
5
B28A
100
AcDbEntity
8
JOINTS
100
AcDbPoint
10
48
20
16
30
30
0
POINT
5
B28B
100
AcDbEntity
8
JOINTS
100
AcDbPoint
10
48
20
16
30
42
0
POINT
5
B28C
100
AcDbEntity
8
JOINTS
100
AcDbPoint
10
72
20
-48
30
0
0
POINT
5
B28D
100
AcDbEntity
8
JOINTS
100
AcDbPoint
10
72
20
-48
30
18
0
POINT
5
B28E
100
AcDbEntity
8
JOINTS
100
AcDbPoint
10
72
20
-48
30
30
0
POINT
5
B28F
100
AcDbEntity
8
JOINTS
100
AcDbPoint
10
72
20
-48
30
42
0
POINT
5
B290
100
AcDbEntity
8
JOINTS
100
AcDbPoint
10
72
20
-26
30
0
0
POINT
5
B291
100
AcDbEntity
8
JOINTS
100
AcDbPoint
10
72
20
-26
30
18
0
POINT
5
B292
100
AcDbEntity
8
JOINTS
100
AcDbPoint
10
72
20
-26
30
30
0
POINT
5
B293
100
AcDbEntity
8
JOINTS
100
AcDbPoint
10
72
20
-26
30
42
0
POINT
5
B294
100
AcDbEntity
8
JOINTS
100
AcDbPoint
10
72
20
-8
30
0
0
POINT
5
B295
100
AcDbEntity
8
JOINTS
100
AcDbPoint
10
72
20
-8
30
18
0
POINT
5
B296
100
AcDbEntity
8
JOINTS
100
AcDbPoint
10
72
20
-8
30
30
0
POINT
5
B297
100
AcDbEntity
8
JOINTS
100
AcDbPoint
10
72
20
-8
30
42
0
POINT
5
B298
100
AcDbEntity
8
JOINTS
100
AcDbPoint
10
72
20
6
30
0
0
POINT
5
B299
100
AcDbEntity
8
JOINTS
100
AcDbPoint
10
72
20
6
30
18
0
POINT
5
B29A
100
AcDbEntity
8
JOINTS
100
AcDbPoint
10
72
20
6
30
30
0
POINT
5
B29B
100
AcDbEntity
8
JOINTS
100
AcDbPoint
10
72
20
6
30
42
0
POINT
5
B29C
100
AcDbEntity
8
JOINTS
100
AcDbPoint
10
72
20
16
30
0
0
POINT
5
B29D
100
AcDbEntity
8
JOINTS
100
AcDbPoint
10
72
20
16
30
18
0
POINT
5
B29E
100
AcDbEntity
8
JOINTS
100
AcDbPoint
10
72
20
16
30
30
0
POINT
5
B29F
100
AcDbEntity
8
JOINTS
100
AcDbPoint
10
72
20
16
30
42
0
ENDSEC
0
SECTION
2
OBJECTS
0
DICTIONARY
5
C
100
AcDbDictionary
3
ACAD_GROUP
350
D
3
ACAD_MLINESTYLE
350
E
0
DICTIONARY
5
D
102
{ACAD_REACTORS
330
C
102
}
100
AcDbDictionary
0
DICTIONARY
5
E
102
{ACAD_REACTORS
330
C
102
}
100
AcDbDictionary
3
STANDARD
350
1C
0
MLINESTYLE
5
1C
102
{ACAD_REACTORS
330
E
102
}
100
AcDbMlineStyle
2
STANDARD
70
0
3

62
0
51
90.0
52
90.0
71
2
49
0.5
62
256
6
BYLAYER
49
-0.5
62
256
6
BYLAYER
0
ENDSEC
0
EOF
